<mxfile host="65bd71144e">
    <diagram id="HIP3nbAZw_EuaXWnEj3U" name="Page-1">
        <mxGraphModel dx="767" dy="258" grid="1" gridSize="10" guides="1" tooltips="1" connect="1" arrows="1" fold="1" page="1" pageScale="1" pageWidth="850" pageHeight="1100" math="0" shadow="0">
            <root>
                <mxCell id="0"/>
                <mxCell id="1" parent="0"/>
                <mxCell id="7" value="http://ics2o.mths.ca" style="swimlane;whiteSpace=wrap;html=1;" vertex="1" parent="1">
                    <mxGeometry x="50" y="50" width="760" height="480" as="geometry"/>
                </mxCell>
                <mxCell id="8" value="" style="rounded=0;whiteSpace=wrap;html=1;fillColor=#f9f7ed;strokeColor=#36393d;fontSize=9;" vertex="1" parent="7">
                    <mxGeometry y="130" width="760" height="350" as="geometry"/>
                </mxCell>
                <mxCell id="9" value="Please enter the following:" style="text;html=1;strokeColor=none;fillColor=none;align=center;verticalAlign=middle;whiteSpace=wrap;rounded=0;fontColor=#0D0D0D;" vertex="1" parent="7">
                    <mxGeometry x="30" y="150" width="150" height="30" as="geometry"/>
                </mxCell>
                <mxCell id="10" value="Radius" style="text;html=1;strokeColor=none;fillColor=none;align=center;verticalAlign=middle;whiteSpace=wrap;rounded=0;fontColor=#0D0D0D;" vertex="1" parent="7">
                    <mxGeometry x="40" y="189" width="30" height="30" as="geometry"/>
                </mxCell>
                <mxCell id="11" value="" style="endArrow=none;html=1;fontColor=#0D0D0D;jumpSize=5;fillColor=#eeeeee;strokeColor=#36393d;" edge="1" parent="7">
                    <mxGeometry width="50" height="50" relative="1" as="geometry">
                        <mxPoint x="37" y="250" as="sourcePoint"/>
                        <mxPoint x="280" y="250" as="targetPoint"/>
                    </mxGeometry>
                </mxCell>
                <mxCell id="12" value="enter..." style="text;html=1;strokeColor=none;fillColor=none;align=center;verticalAlign=middle;whiteSpace=wrap;rounded=0;fontColor=#BDBBB9;" vertex="1" parent="7">
                    <mxGeometry x="28" y="220" width="60" height="30" as="geometry"/>
                </mxCell>
                <mxCell id="13" value="" style="whiteSpace=wrap;html=1;fillColor=#e3c800;fontColor=#000000;strokeColor=#B09500;" vertex="1" parent="7">
                    <mxGeometry y="20" width="760" height="110" as="geometry"/>
                </mxCell>
                <mxCell id="24" value="" style="shape=image;verticalLabelPosition=bottom;labelBackgroundColor=default;verticalAlign=top;aspect=fixed;imageAspect=0;image=data:image/png,iVBORw0KGgoAAAANSUhEUgAAAT4AAACfCAIAAADvbSKYAAAAAXNSR0IArs4c6QAAIABJREFUeAHsvXe0ZVWZL9rv/nHHeDeMvsHu27f72Xbb11bAjBibYEAbJENVAYKAClVkRZtWUhUqplaRQrQxNSAGCqhwToUT9j4755xzznnlvNb3xjfXObsKKBR7DO+AqnPGN9aZe+2515pzrfmb4Qu/+SdwMv0ZADoRrLSxLgYYCug8aDQofYOZgSiAzMg0gAKg6iQXaPhPBJABQDVA1QXQOFBJHpkHiQZRBFEBQQVBAYUHzAwwM4BhATiSBpjxACyACqIOrAyqCJqIP+QlECVQZNAV866YB2+v4B11CRSJZJPxhyqAboCmg6qCooKsgnSMyCooOhZRw4oaOmgaaCpoMugiGBwAA0ABzMiRAYPHy2sqqRT+QsFSSaQWIgMqqaMIIHL4Y4M8AMm8lkrKoGCxX7nIpKaCBIIEooxPTFKwCoqGj1rTsWrGvElqYAigduXJWGd6/GimMAqo9XZ1vXYbOeevdf1lzX9/Qif+5ISu3YsrN3/H+MVLoDsCri4Mx8BNFEoBmWHGisyzMs/JgiLwkshPdG6mcQbH6jw71pmRQcsiLYvU2JgNYDrVp7Q2YdQJrdJjTZ5qPK/2OHUw0rSxpvJql1e7E00eaxqjTlh1SGnMVGOn+nRqjGf6lNIoSmVpRaAViZFlRpZpRaIVgVJZSqNmJBulT1iF5mWWkxlWYRiVZlSKVmdzYVSKUWlWYTiZ4WVWkDhJ5GSRxXJKM0meiMpIUAaC2sejMhLliSRRssjJgiALkiCKlMrM9BnWQpsOgRkbDK9MeWU21rmxzvEyJcpYzpnGMQrLKgyt0pT2yoWi9OlMn8z0CYVVntLajF4vMym2wnIyy8scisSzClceN1hQGJAEUASQp8JMUDhVl0kPvA7y+WvdhO6LW/wJ83n+jl8K3SYzoECmQW0JozbdEw1hMunpBo6lAogajqUCBTwDPI7QBkcBNwNOA04HlgZmiqMrwwMtAM1jNpUFSYSRCBMagAZDhJEEQwY0BkcSWoQpDzwLAgs0CzMOaA5YDngeJB7bqCqAyuPoLXHAk6/MbJQAnAiCCIIAvAAcj8IeI5wAnAC8mUcEkQeFRZEYEBjgaGBooCmgKKBooGngGBAZzKCxYLBYPIHFCzIcMBTwNF6KEbGOAplZcBJwHOYRBSwGz2PxXrlwHF6ZJoK34FFYUmaz5GbheZFUQQBxCuwMhL48bTN9RudpmdFBFSRuE7qboy6YE+YmM2BALVLtfc4jS55Vm3ctEHA53KuLzoUF14EjjgOHnAee8+7f69m/YkN53rv/ee+BZTvKPg9+XHDvP+jat+jat+BaOOBcOuA6tOjes+h+7oBz9YBzddH9zKL7mQXn0gHnyqJr36L7uUXX4oJr8YB77wH3cwvuvQuu/QuuAwuuxUXn4UXnESKHFzDPAfxqPdvzi64Di85FFNcCkQMkw/oRvzXPkzwHXIeedy8/61nZ413a4z2yx3toj2/xGf+BZ/z7iSzs8R0k55f3eFaf9Vifd6/sdx884F6/2n73gQPuBXLNAwdciwewbAsH8YFgyc1imOlXfMSHSWq6f35cdO1/GTmw4FpY8BzZ6zjEgTLVGAnUmUiJKs/y9CZ0N6G7Dl0etJ5KfebLt13/xR03ffHmL937xe9+9xtffejeXbvvf+DRe776yD27dt/7lR/de89j9z70g3u//oP77nnsvnseu//rDz/w0MMPPPDoA/c9+sCuRx746iP379p9/65Hdu76wUO7Hvnqzke/svPRe3Y9/M1dP/gmSX/5wR889ODD39i5+348/8hOlN337Hr0y3jcfd+uRx4gJ3ftfOTBnY88uOuRXeTjA/iVme3Rr+zc/cDO3bt2PmLKzp2P7Ny5+xh5hJwxv9296/7dX/3yo9+8+4ffvvuxb9392Dfufuyhu3/0tbt/9ODdP9pF5EH8+NhDdz9G8vzwO1959Jv3736QXHDXzt07H8TymLd70CwJ3no3lupBLPyuXRs3Ms//3uOuR3Y9uP5bvDLKbnxi+EBQ7tv56H0PPHrvMXL/jvtvv/6L23f/8l8LvYoEqoJL4o2V/OZa94SZD//eivyOCXOikY+18td+cfsUBA5EFRSWndDckIUZBWMWxgxMxjCZ4kR3ysNsCtSUTI8lMlVmgBGAFddngyyZ9wo0zBigzEUag+mpgGs2mQWGAYpbn+tOeRib1+RxJokTbxZYIuaUkuZRv4XZOJgyOMtlGeDYFwjP4vT76EkyN2YpEKagTkCfgDYBZQLyFKegwhR4IsIUxAlI5Ct1AuoMy8ZzOIsWWJyQ0wIWVWRweoxrAQan0AKZ6NKkhEfveOzdXy5NqowT440ZPlaQwyUDxQLFoMxomJpCwYTCj0K8lbvss1d2uaGpptJBpdnZ5qi7OeoeHXUzg+r2+79AgzySpiNmOJsNDNJkWUTOjEMM4/pQQJQyJn4k4BVc8okSoh01vUQVLJl6V7J2FRTQFFTV4oJQQbWwJuASlBdBIipWVgFaAUZGnTOuJEXEDArRPHMycDKwCjAK0DKuDHkOBB6vIJkdgQjKXASQBVwtSzzqhAUO82girrRRjyzjqPUCjbSCZZAlkM0rSKAoIMu42NZFLCqn4O10DlXfWAYOV8WqBLyMC1SRx9vJ4isWCS8uKyiSTKovkXU7qTInbKyxCZhNPDMDfdoShh+94jzK4FrT7pAZaaBsapgBYBO669BlQbEmvF/+/ldL05aIRhc0zUgyraLlhpVwROV41MoIRD0jCqiFwlaobRg2gNhjVGKK0UHXQJcRLZoBhoHIUSWc6RlkaY0oMo0rABIxJIkGGn4Q/BvNGhMqSDpIxCyFFhoDDSp4X2JJ0hTQVTBUcmON2JNUYuiSQZMQz5hNXTe36JjL0DA72sIUPBoyChq8JMC7SAamNWP9UkBOyubXBvA69ixo9FKwn+KJTUgnZdBVLMnvFw10nTwB85mYliuNWLk28IydIDEdoQFJwA5Izg2rl3/uqtqkRaksp/GMQIkyvznqbkJ3HboUiKFaetvtN8zQgqoIOk9MqqJuiAbItDgVDV4FpT3ttqjeRKEZhVNBlwxlMB7iRF2HaX+IllQDur2+OXXv9kc6AMdxw+HQtCfzvAAANMMdNS/ruiEKCsdqkgCgMdxMB1UjImmCASrP0Qg5XROpGRjalJ/KoI65Ga9IFENMrTqIrGoarEUBDdEaAKsKZAg1l4UmaDVEvaYaOAVGXEuTocZOQWE1aabIUwDeMHiR49C6S8Zunp0CqKqCgGP5kQGCBgjZMTNg5YlkyLQocKLIsLwoKaatTdNBUXUDgGF53YDpjFZUnWF5QZQNAFGUwQCJk0EHjuI1RedZXlM0RVGItc7Q8VbaXBRQGRCrdGfLTZ+aagyH5ZY217pm69qE7u+EriZz0wmOoKBTzGw6nWhgTFR+INIaujsYI3Ym6YrE8dx4huBRdFN1IkiCASDxmsirxDHCWB/nMIsqCgrPSrjwVnU0004YacYonACGoWmKDjonscRFgQDcMCSGw9Fd0g1RknVpJlKUwMiaCgaO7IhUFUdDQyRpAwsi6jgNpmSKEmf1TtUAZTIdUOMBTt51lRzR10MTphzTBWBpvlPvpVlpKIn8uDNjhwaowHJTBrGNK2AdeEGfShKwrEGmBpyK3h7A8eKGgRwxxwvydMZo5DGIkmoA9PojmuENAAXnHGSwJNVS+PXuBtDaQ9LzC20kdPRgkTahe1wlziZ0fyd0VRlRoaL/BsvicCSIEo02W703Huigs7h401RZBF3TJIGeTgReUA2cHqugy4wyG9GVYd2XDoIGwkyUcdqsEMgZio5zaYUR8PqSJrE84PCq0RKtgErLjArqeDYGMJjJTGNFUEHlBEHlZJxUK7IuS4JsSKR4Cq5HcY6vwXg4UXFNq8ggVcbVjjxgUBFFT3VaAqXYKLT79QnV46WpCpwK7EBo9qQ6BxMGRjWmpIEKGsgj9LOaiSMVZJChnOyIQGd7MV0DjtbSzWR+mKJURtRVDaA3HDY7HXMeoaOzmSFr2ng2Uw3D/KgDCLIsyLKmG6PReN0ZRgeWYjmK52ac6fq17ummkQ7IPBrAgbwJ3U3oHu308VlsdO2mXff4E2ZV4XtjYGVVVnme7zXb519w/pe/9/W2SimgDpnBwJj9/MCTV1x1UT4flTVKB5ERKBl1uVS6k8W2aMCFN1923mcv1AR52Owl+5kRzFQDV6DtaYfVWUUU2clMFnhVkzTEm0w0YQLRY4mdWUfQOABN4jlNkEBXJPS4YCh9ooCE5k0DeIpXWAUU0EQNp6MKekowMBupvbbS7sB0AHxV7ycnpct2XPXmD5x245e2M6hwQkeIgdadwdjdcHzrmYcu/eeLb9h13fd//v1UKoOumyqwQM9gyvVVUKEoZCfQ7/WHqgLX3n31GVvexQFX6lcEEHv0gFIYGdTmuE2rrESWFUNuLINaHzZplWV1vjPrsTo/k2YqKJzKyiBpoDICzfIMeRMbr8PsADYW7oDQVTahuwndfwd0ZbQjSsp4OtLIxPS2u24+65rzPb1EppsRgM0rtUvuuuKOnTf12WKLzU+M9lDueMveBnTGMJ2MugZI133/xst2bhMFdIruwiAPZRl4QaF7erejdxQQ+6M2UU0LFMzaSnsIw6bePJI80oMeA0xpXGSBVkHiRIrTZmO8cpuBMQ3jidTXEMAzRRVoZkIxY1FHAxWLNqRxSy/l5WwHpklodIF9eOEnb7/gfclxoTirlqkaC9wABjOYprnUG87969M//e579tyz27L7gu0XPLHnCdCg1e20oDmEoSHgurQBtQREh8xAA23rzssveOAf61BhgJrAaAyjvt4bw4hFr7JJT+syQDeEep2vscDkJ7mO0u5pXWL0omtcpae2+2pnYgwn+qjPd3lge1TXXCCsOzBvzKsNnDBvjrrHRe6mhhkbC6pcjz/qahLV7Wgip5LxkOGGtpDlzRe/54eOpyiYUjDe7fjXD91y9kL0Nxy0BlD6/rNfv/Lzl1z8+QvvOfBAFnK8POSM0dYfXfN/PnOqrE+r9eSNP7v51O3v6Co1Hib2hvVtl77tx3t+KAEXqQY/fu3H/uW339n2lW2nXnzqV5/5agtat/7g1tMuPO2iWy9cih2mYNJhGgLMnnL86weuffsHr37X135x7wQ6IlCUMlDRpESN+LYIVHGa3PmTf37ftrd/6Lp3fvfQNzJQrsH424uPXfJPV5917bk7H//6YuDwDKjSrMQAlWPT39v7nVMu/funYv/WhFoakkUosED3e92xOHrdBa971PvoXXd+ftuVl3/26RvsYBWBybdS77vj9HO+duaDz9935rXvP/+Wjx/OLY5hkBGSPWjvCf3mxm985kPXvP+en/6zs2XrQ6cHbW/Pdeon3/zY4d1nbH334dxCG2rxWfj7e7793kvefe41H17w7eNRhy/IqFFXdKKTN6dFm2vd46OWnN1c6/5u6BKDKIgDYdBim5TU44A69+7LTrvh/QPojqDzgS+ddfqd7xtApQXxqx88/+zt7/7evq//Kv7ke77y/r/a8ldjoSzA4I13nXLK3e/goavD+M6Dd/3P6//3FDpDvRqWA2//9NssheWWUqdg/Ikd537k5g9f/93r73n23jM/f9a7bzz95p/ccuuPb/3oLR8589MfytGpntH++r/df+4dH3jc953nsv+29Z7zr7r7opZa4GFcmab7co2HcV3KnnPtGZ+88+wnQz/8WfB7Z9/53k9++aIOTL6z/5Hrd934mXs/97Uff205cJgyxiL6Wk9YGNlKh99+yZs+dvuHdtu//Wzx6TqUI5OgBmJbrL/u6te98bNv/M0zTyzbD5x6z1v+62f+c24SE2D60W+d/Z8+9R8v+sY/Prz8rXM/f87/ufgNv4o/0YXG3sIzr//Hv/jM9651jC1XP7Tl7y766waUu9B4Nvvrd13z1o/defanv3PVM5lfdqH+vhve9ZZL/u6Z6NM/s/74TR/927sfvosFikcLHD8HsE70acymmupl4HtyQXe+wp0vdAF1IoYE+hTEYD29dcM4JGKMgYzuDBpngFCn6z29zwPdMBq7/U+8dfsH9lcPrE0tb7j+TV9Y/FILCj3Iv+GS/37vnjubUMhB6tf0b1+35X/+7PnvMdA550cff8fXzpgaNRkGFz5+yZ9+5nUjaI6g5tc877vjvc/FfpulEwNof/Da9z74zANVKFegfPbnz7po54VuzlWH6qHKwgeuOcPXcXahccXdF938ixsKEI+CZ9dzd7/zijcXhXhPq8ygI8C4IeQ8jdUzrnrrrufuTkKgCIn7Dv3zO697z8HiSg3aDz31rdPPO534+tMS0LQ+GEoNFoYjaO6L/mb7d6//2O1nvm/Hu0/b/pYDrf00UA29/t9u/G/X7rtGAHogt39CP/6nO/7rM7anp9D/8PfPfOO9f12HUh1Ke0vPvPGyvz7Y3t+C2heevP09n3tnCmJBxRvW/Kde/fdf/u2XWlB7pvCrM2//wLeXHypBtgXlhdaz77zulF/GfhaT/HUo3vXo7Rfc/AkaJhx6nuHwSwzaGAaI6joQK3Rny/ZPTXWWGIdkDYdlc02MkUMbk+t1VdfRiMGXafEnzOmTDrrroD366lHhK4A+BtHXSG+544YpCZ2VNJ64VIhAnH7GxnQKTB8mbRinofmm60//yH0XfGn/fX9+1RuSkC9BwSYu/4f3/8lPo4+mINKA6hrY/teVf/7EkccGUPuHh8857b53TKE1hNq1v73uP1z+H/vQbEP5qdwTZ/3TmXsiT8+g19SL/3DVGQ8//60UG+5D87bv3/SFR28d48DeXskvXnL7eYcTe3N07L2fPv2D95/17gfe/76vfOiyb1520ZfOX04vCuhHOWSNflcoP+//zZsv/LufJ38eh7QfogvSyjlfOO9Qca2sNx968tvnfupcFmjaGNPaUEZd16CvtBiY1bTaCCZlaOzrHnzPN8/4s+v+YgZSgi/8yU3/zx3pO4YwzbCFp+Sn/nz7n+1Z2ssC/64H3/qOb51SgiIN9DOJZ877ynnPV54vQOGqb1/1oVs/dMXXrzjrjrPO+8p5H/vSx+5//v4WtJ4pPHP6Z0/fX9+fgkQVck8lH3/T5a/f8cPrP/H5sz+y/UM3f/sz13x56wwGNHp6UiJ6lfEq6rEwDHgGQonuXLHj2hk6h2FMFfEmMR1d1nE712qRqOoTBpu/pyInJXTndgyiFZExiFwfguhtpq/YgK6s8cRxUAJsQBKDOluxB1QDxnUY3/STL7371nPedduZ1/74xgo085DPQuqsO99/2pVvakPDJ3pv3XvH6y7+syPxAwNov+3L7/z4w+dNoM/AeMdzt/zlZ1+/J/6bDjRuePSGsz5/5oHEcyyManzu49ec9bOFH1LQZ2F0y67PbL//uil0J9CxJA9uufXCaNubn8Y/ctPZZ+/6+HPCkTjkD3aORGZhDmYK0Lw4BLT0MOl+7Ixt77ng/otdELJD6KyvffLDd14QGKQmwD/860f/4eIzR/KAM2YSMKVWRiG+lsFK6PH9P/d34n1g4pA/89Fz/vOVfzoFZQDsf7r9/3391/4/W9c7Bu6Cxy947z1n+MJRGeBj3zvrEz8+ZwozCdSVwup7rj1jb25fC9oPL/3gtCve+oPlR3rQz0PB0rH2oN+F3sHKoVMuO3W1bWlAvQ6lkOA65bI3br3/4gpkJ9BdjO1tSCUaHcVnPDDEt1TUCWGAAtoUxOI6dEUOYyE1k37ADM01h9xN6P4elJ8gX5s2oY03T3gfELqjF46669BF4gpdlSSdDMEz4IfAjIBfrXs+8JmPvvGC0xZKSz0YZrXMCHoLyWe3fPGiN37kb9955eln3PaBLz59NwPMDKi333b6+//pTAbYttQuQvXNn33rOy5+19988G8vvfeKs3d8+PEDPxKArs2K5131sX/56TcEjECYferWrZ++46oOX58ag0XX3n+44H0rwUMsTOOj2DuuP/3DX/7E/7n0Lf/99P/x2J5Hc/UkwwyJV6PS6VQEoBd8+0/f8p6/+sc3vOW6t7/56nf8NrQ4A7kpDr7543/5+GWf6M+6xNsR/R8NkDmV2XP42Q9feu4b33fKm8951xs/eerrb3j9U+WnxhKb7hb+9Jr/8qHvvO8NH/y7j2z5xF9e/hc7992niqBI+gfves+bPvP6rtg1AJ637T1z2z884/rtGEYtvXn9Pdd98sbzP3jFB/7yPf/7qi9e2TZabaO1kl5+z0Wn73E/k+eyFa0wgu6PDj5y7g3nvOO80045501nXvoBX87NY1Tw+kIX7cHoPIpz4BlIrwS6Jno3R90TBKTHr8aGOdecOaOXD2F5GYPoP2bCvA5dGe2lOH1DDz1D0GQRQ9KVGYi/WPrVjw/8nCLB62MYTKHPwzjTigSLPnveERgFpjClFZoDbm9m3/7s/qk0oyQqI2aGMFh0L9bH9T70n7b8Mt/NUvKkT3eWnYeztdSYH/Tpjs1vWXYeZtQZp9OVbvEnv/xxe9KQ0IOay4v5fYn9i5EFV9qBRDmaBJqhzpCIhu4PqdlIBbHFNTw1957ws662b4AR80qbGTlCnj37nlU1WRFx1qkI/HjQ53hGA70+bDtiflsiEOwnEhALs34DVQD6/7rwfzwS+BcGmCO2Jf/E3YYGNxA1Tj9U3vfb9FMqqPSInfITV9xRGZZm2kQizAHFXn7Jc9if8Ra6OQmEsTxMN5LPLe+pT6oC8hNMCtPcBIYVquRM2pP1RG1UpRSKhCWomqEZ88WrjivaGUgbE2aRJ5RAhPdH3+h7j/pxmL7cm2vd4zf7E+TsMeglrva41p28FLo6aU6CATziW2cVTVp3zZfBGAkzARTOEDiVNUDm+amusKjZUmSBmao6jXxOg5nGChrQo1ldnDDEtbBPMW3Qdbo/MhSB56cGuhOiU74pDM+yAmemBVmUNUU1NF4SdDBYgZtyEwl42pioIKBv42AgTlnsXFjg2pTpTTUZDGSVV0GYqkMa6KFEt2aTdXdJVTcUA72ATV8l4n1FFHUYdiAAdMThELosTFRGYifUGZe9/Tt7vjacdhVZZGAiA4+ZFBhCp8hmeIYDHkSWNzYiIMbjgaKIND0VBNZ0iRIEVpJ4My3Lwng6kElkkgwKrwuswo3oyXA27o1GqklLNV/LmOESyKAll+jOlh3XUhiohGxe6N5moJv0fP5kum1vQvcEgefLVeMonZH55tFrCGPipiAGNjTMSONmqqkUBZeQEomu4XVDRN9cWdEEWaZYVgfodnuarMrYiCX0Z2RFdNHXQOc4djgiHo6AMTwYKQTiVNQ5EldLnCvZ4QQ0fTwcmwWZzugZxZjp8WTGsLz5keUEU0jJDUXlACSJp0WaQc8ldKIEbaoh/RyNrHAouuncLCm6IINBKwqS1GlobOEpnriWkBoR5jlqyrC8xKuaDEBrfG1a1IDjBjOdle7+6h3Rinc86YFh8DItyTygYgB9NDBMjxbNzgKnJKKs8uL6CEjgh37XCEfAKMNjADkcjdHzWZQUHd0kzfqynIRFJj3WsYjUCHTL1PGhO7cXbEL35Vr7iXPenIu9AL0bxqEZMQ7NI4dEjRiHVOIvTHyM0UtewgAXbKWSbDY7XcUlmTTjELEKgKRPGQ7XkZoypJD/kTZAVmUDaZ8g1+nKxG8532wKOMoZgoY+wAwv8JJsNmVyPQwOlDVdUrV5mycoA1EUVeRmVDSRJ/SJ6M0/7tOGAjytMtMN8Gi6xNJgKDTOn9fj+jTyGlXCGEmPpsfaUjQAWhJJ+J8uATuetshUwDBApIWhATLLUbIsaYh+kER1wk8xCFkmYbNmyXTgKRZLLCoYPoUWHBKMoQM3Y0DRzfPY0Rjo3s3zqqbBYDiT0aEbJjNOM9DmM/dfNiuukAlzmeps3X4tjbHTqkRiHjRE/fqfCX4TveZL2fjmBP9/cmmY58sofKvmO0foGfJxvanwtGRoIiBmBR00QRU4ReB12WRdpXhWlGSGYs0Wp3MY0TbkWEpXMDjO0BoyNyP3GU8nFX42A2AkUZBlFmCMAfcwZCnBUGkJvZMpkRd0VUaNEwi6ag6ftCQoAIwsTjhGNJDrlKPHGI0LKokxQiwQjasZRgvDGTWhTAYJVRNZkackjNrVJiKlgMbJnKyKmi7rusJxtKKKBmgzbqaAxmNAoEopjKizBgYGY/guw040DM0VVdRpGYKMQJNB5w1FJvcVNFXRNUVVRQkDoSRZVjVNN4zJdDqjKEmWdQOXruvoImleWA8P1AFoVpR1GM1os7JmRUgMsRlJvD4bmkNXBFXGHgs0XOoe/ZujdxO6Rx/KCZYi2hcEGv5tDMEGhp/rlCFU6e6Ht57fVykGBFqiOH4GuDAz6ReRF5JQT4gcsjTKPDFUSKh5xhBzjUSQ68SnksyYcdhgERLEg0DTWQw9VYni1JDwvGp+QdiYj9JczPkujpuQEUIIKo2sGAWMYdIoMGZEKELpKGD7VjSSUyf0HTyOV0htuUF9LCpIgIwik5Mm6yVP8pDzgkBYIAnJs2LyckjEPcXkheTREg4M1kgWjuHoOG6Zjz0pEdOOGYtlwpUM9egSQyip5zyYMgfr0lNmhXHjnEs/IWBnp8x45ig+570CMfKZn06wFvs7qnPSjbqmMuNY6JJQO30ozjzZ8JabP22Ne3r8iJKpRrtSrGcz/UxymEoO04l1ySSG2cQglxzkU/1CulfMdEvZbinXKRXa5XynlO0WCp1ivVGuNMvxIWZr1aqtWiU+zMVGuXqj0qxXM71CcpArdIqldjHfzWd7r1Ry3VypjVLo5DO9fGJQiA6L4VExOC4Fx6XwqBgdFhODQqaXL3TymLOTzfUymX46209ne+kckXw3PRfzTLaHGTBbL1vs5PPdbGIUTYxi+U6h0C6l+9nkIJvuF5KDfGScjI4ymW4t061FR7nIOJ0Y5FL9/Cswuy9ZAAAgAElEQVSUTK+Y71SK7WphXSr5TjnXKeXwGRYzPSx5up9L93OpfpZI3luI7HMe+fQdnysPGmS2bMia2ul05pOmeWITur8D56/5rzAYnggudzdGXRO6PBlI9zmPbN1x7dkXfvTKG67ccevnPn3T1ZfffPlFt1160W2XXXTb5RffasoVF9+65ZJbtlx6y9bLbt522c3bLr952+U7rrxix5WX3nzlJ2/f8snbt16241MX33LVR+667GNfuPyK7ddesf2aj9512UfuuvSyHZ+6fPs1/3jnlnM/f/knb9t2yS1XXr5j65YdW16hbN2+ZdtNW7fdtHXLjq2X3bz14lu2XXDbtvNv33beHSjn344fL75l22U3YwbMuX3L1h2XbzlGtu64/EXygm+3b7nyxqu2bt964e0XXHj7hVfs2Lbtxmu2bL/6spu3XXLrlgtvu+yTd1xy0W1XbLnp01tu+vQFt11x/h2XXnTrFZfesvUVyuU3b9t609VX3vipbTd+attNV2+76aptN121dftVW7ZfuWX7ti07tl6xY8sVO7ZcfvOWy2++gsjWN3/wbTu+cqcj7iW6Pm0wHU1m0/Wed/4G58Pva76F/gEVOLlGXdR3EsGl0tGFL/KqtCbdDjtkQK7RXRbEITdicX0oUkCNYUaEGmOMGzUB2pQp0FOMaEX+9BkKOwamB7MeZhCHwNVh1IDxDHkY5TqM6jAcIyGj1IZZE8Y9oMfAUht8iCYr4u870oRNkqWRWJwdAzsEdoAemigDYIbk5AwZz1kGaSWZ+QUJ36LJunico5mNQ8Y8dB0bwKCPIYEsh1NilQVxBNM+DIcwniK1HW7aMoJZH8ZjZMZkX6HMsEgch+SVRyksGSSg5BgsMMMQhnfC7U4TtneWAanFDgRQe8xIIQsTUZJ4bp3ZZ113PYfuugbyDwDAazfrJnQBUH2iK6CNFbpO9zriWAClzwxYiRZ1pJJ7ETUph43PFNZMmBkIwSrLIWUkq6BySKBhxMBENXDPHxpGFAxNxwMOWUsnArK0CSIaWthXLNx8XcrhbgYoNNmjwDyaZ0zKSHN9S7YR4Mhd5tsLvDhhfitieUTV0EVQpthbTRgkoyS0GTrMYDqCAQO0BDJSZekGi84eM4ZshkDYJ4VXciSkfEjN90IRN7ZrQM3CxvYOyHpJgzjBIGT041JBV3SV4zh6Rh3tec217xy9r10s/oElP+mgi9yHhCDp6Lsn/juFRkkku2OxoIxVitE5DRRWpExVzcbGXLKKJFHIE6Ue1fSYm19hg5OA13A/MIEMD7IGYw2IGQbb/1iFEWFNAwMYxAKah2QddU7iKxTCF6ua7LAKCaxRCP0qoVM0SVKVjfOYjdBHKYSzEjkuVcz8YjHPm3nQA1FDqzCHPtu0CMTaxOMjI3zUAxVMOh5cdWhYX8Zk23npZV/+DDJdHiPosEa2C8NQoWMEyeUU9F2TpwY3ECZz6GILN8mv5qazY9H7BwLgtZv9JIXuupLZfPcEugpoE4UeqTTxcVcm8mzKT3iRQTsibu1nypytkTCz4fZ5kmEg3ZtpRNFAMNAhGnmkkHsRJmiYJMtrA8YGjNeX2joLBoU2Hg0HEkOXX7Go6ClICB6JGVQnmwEQOlRVJS3fZFNcz2Ogay8pOf7K0PXji2EaVVUDi0e2M1SQWhnDd3CBMcVNk0Rkou5jd2HuFogMOBK6kCK+5hSOvydh6JpmmLsTKpqBohuKrquGrq1fBEtL2LaI1cvQDFoTBBxy0Sykgs7wLIJtvtiZo3dz1H3tdkKvpOTzte4L7UP42nlFYFX0PeJBnomM2ZTQloOuBS8RbGFmMyU+Sia5MTIbm4ZP4pCA9+DwemZbxNGYXU/rMgk0JNlMNyKd0Jge54g0rmQMJ3jFDKZbITmut/J5z7LR7ueeDWbC1Kpv+E4c69u0np5nQ68SVAYYCCYZLyeT3TzRdM3J2A3p6BbKEbdJ1aSa3nCrfNFNj//RMNA6TTqSdddP4gCJu45u1GsOXVJsBXRGF1hN4DVR1CRO4DQNKbjW0TtHrJl4JY3gRMlzco26xK6LODOb8fpLnLcDswuft2OzDc379XmCZCAwJw3omNbDMex6qyLDAo5xGtK44ra55M9QiUMQEra++LdHf7ie1xxc1scXA6exZoj5y//wmJIcvdqxJ49e+YWpY/OY1cSbkCKaSnnkjUWKZbzsHGNmoMCxv30l6aMle/kyHHOd9QdJzObrzFXz351MSql5peeJkw66G47+R7Gz3paOxe2GXw9IYCiGriICj/6ANCwd+ZXB0Aye5QWkUF5HlKoY5ioTvTSOwaeG9FaGJGqioEqihk70Gz95cWL+cjAL7pawsVcAjrkvbr7HZN5MnlRP4OSC7rGrJBM46y/bAE3RdVk3ZLLem8/ZiL/dBnjmKMKEpEgvPa+oSBo+F90ABaPsVEle9/7DQUs3NB0jX466Us/H8/kv54mjjXH97kdPbKZO7idwMkL3OLgwG8H8CzOBJw1JFUVNEDVB0kVJF2VDMoUwJ8mczE7ZyZgeUfwMt2NXeFERJVWWVFnWFFlTFF01xRztN1au61F+Rz1Dfgd6jy3Vyd1YN2t/7BM46aB7dEzcWCltQAMXkzqoqo6xcqLKCQrLITO46fpr7kx39Eh29BOIVzCeND8SZnDFVPu+6MgIFCvSgsJJmqAYSLxEdqwjO3zMcft7ExtlPvYVbqZPzidwUkJ3vgTdmNzqoAsKxyusoHNkB0rcelNBZmBeIgROHDAzfTKU+h221aTq9Wm1NqmUBoXysNiiGx22ZR7H0nDI9sbsYMqPKHHCKhSvMaKB1zS38JwfFRBFgxPVF3oF/V7omiU/OZvqZq1f+AROauia4y3ZUFMl7gqSvA5XVsLQGUYAujjK5QbpVCceqQV9BbcjtWaJLq+Ej0RqwaXgoacPP/mzvY//9Pl/fXLxF4ue/f68Z9l90Oo74o6uhbPedDVa7mZbk0qXqvNIwsYouGPtuohACxrZtmNj3McZwYvQO1fnmolN6L6w+Z7Mn05K6JJp5wZMdHN/VzLpFShj0hdb1Wkh04vFGoFQzWNNLluTy2upFXvG4shaXXmbu2D3FB2+smsttbISO2xJLB0M7H96+YmfLzz+1KFfRMq+SNEXynv8Gac3ZXfFrY7oqj2yEsy545VgqZ/psvWZNthAMk8Mmse0wI3uZB3Dm9A95tlsJo99AicsdBVF0TcCstEPQNPMj+ZOsObYpuGO1RKncazOCMD1hU6qHbenLEdCC0uRRVtm2V2yOUtrh6IHfHWXvWBxlW2eqiPWD+317Xly5ecrqcP+httZWnOW1vwN90rq8FPLv7BEDyebYWvkSLjsdSYtwaI7Vgs4Eqv+vNOdXrPHVxyJ1VDJU5nkZjCQgCVbdaAzEbHcEr2VYSjSugVVE3VdJI4WBMNIeLG53D22/Z7E6RMWuuY7VVVVlmVFUTRNMwxDN3BrTEGVBE0mroyqAEKXbudamVAx4Mk61xIry9FDy7GDa5llT9kWbLpdFZslt7RWWHFW1pbTh9YKKyuZw79x/vJA+Hl7yeJtOB1lq6Ns9Tac9pJlIfT8s/ZfH/A8587bIg2/p2D3Fh3OrNUUW2plNXZ4Kby4HDloiR+xp1e9WUepWxgxww1HYlXSREkRZRXLjMZk4gKhS4YuEN6pzQnzSYzVF1X9hIWurpvkKhgXpOu6Rv7QTkN2uBVBnqlUc9pMN9OBnM+Vsi+HDi+HD6/GjlgSS2vpZVt2xZZdtuWW3VW7s7K2lDroa7qW04dsxdUD4ecPhJ/31B3ehtNTd7iqNlfVtv6x5njW+evH9vxgNX7YV3b6ys5A1b0aP+zKrzlzVnfB5i05fGWnp2h35qzW5JIltrQWXvWnvdlmusfinncKsrChI76oCho6fRG3DNXQcDP3zSH3Ra33pP54wkIXRy301MM/E7qEtVQXQKSB6Un9bC/rzrhXwytr8VVX1u7K2d15HCS9RYe7YLNnVyzJw0uxBVfF5ihbVzKHfU2XCdSVzGFvwxkdBL0Np6tq8zVdvqbLVbXhyX7Qnrf8674fPrn0c0fe6ik7op2gLbvqyFuX44fWMivukj3Y8IaavkDd4y7Znbk1S2x5OXhkJbTky7mLg/xUHR+76Y5qmFvBk2oYIEuyWaPN4+YTOGGhayLWnC3PX7MGWp2ux7sxZ95hTVnsWZuv7AlUvf6Kx11weAhuvUWHr+T0lRzeot1TtPnqTltx1VlZc5StwY53NXvEVlwNtD2hrm9+MtjxOspWZ2Ut1PEFmt7F0IHHD/zYW3W7y85g0+8uOy3pFVvOas+vOYt2V8nhLNrt+TVLemU1ueQuOTxlp7NgW0utWuMr3py7MMj1ha6EQYWSggGGGOhAqE51QRTmddlMnORP4ISFrqZpgiDwPD9/wRRF5ao5V965VrSu5S22gtVZtnuqTm/V5a243CWHu4DDoDNrdWXXvHl7oOQKVj2hls9RsgZaHkt2yV607A8+Z8kuWbJL3rrTXrQ4ywjXUMfnLK/ZixZv3eUo2UKtwPOeZ301j4leX81jSa8Em/5g0++ve82TJnrX8vgTd9VuL1qs2WVLatmWtnjyzlA50KLrE3kkgmAGDMuGpBCK1LkD5bxem4mT8wmcsNDleV6SJFOrrGnaeDzOZrN2v30lubxWsbhbTlfdbi2sLGeOrOVX3RWHv+bxV9yeosOds7mzNm/WjpK3h5o+T9URavucpbWDkf2HYwuuss2SWfLVXZ6qw1tzhtq+UNvnrTnxY93lLNvjw5ir4vyt8zeuitNddQVaflthzV11eWpuU9xVl7PssBdtawWrq263FJeWMwdXc0dcFZu36rJnravRJW/OnW4m2lRzJk95jRUNgYzApubq5Gyrm7V+wRM4waCLVlFiZVmP3dZAm7KTeC5u89pcQVcwH3RVnCvF5cOZg0eyh6zFVVfd4Wm43FWnp+L0Vd3+midQ9QSr3mDFGyh7AhW3r+ry1VzBpjfSCez17vFWnfF+2F93B5veYNMbaHjmQs744v14uB0JtSO7Hn/QXnSEuuFIP+quuT11j6/l9bd9/rbP2/Q4KnZrwbKSXXLVbJ6G3dd0uCprq5kjS4mDy/FDlsTSkeBBa2wlVPJXx2Ua9+Zb98ckEUwveIWbH07OJ/Dahy7xYcDYHFE0cDMCTQNZQDpziQW6OqkES4G1hHU5srwaX7GkV60Fi7W4ai2urpWstvKavWJzVO1OVCM7nBWHq+pEGNdcpvjq7nDLF2n7fVVnoh92FqyxbjDaCSQHkWDDcxyp+8P1WLASC1Sjez2Lu5/9UagbjQ4TK3mrq+l2NJxEHPa63VG322s2Z9XmKdu8ZZuntOYuWl0FqzNvceQtjpzFnlkNN/z+ins1vhSs+6cwZoAaKv0pMzHdsGVRViRFV3Uz/NA8eZzjydmuT4JanxDQRaYUZCfXdUVUWNHgZRAHQrc2K8fbMVfRsZJeXkotreZWLIVVa9GyVrTYSlZ7ec1RsSFoq3ZXzTEXd93prjs9DZen4fLWXeGWL9TwBGoub9kebnrDTW+sE4h3g2b6xcdGMNXJ+gvReCtrSTgfe+7xaD/pb4fdTZ+z6XY2Xc6m09FwOBrr6HXV7L6yw1+0+0t2X9HmKay58uvo9ddcjrzFnkc/kNXM0lLyUHqa4IChBdrE57rbxtz7yky89HgSNOKTs4qveejqCuFkQtITDcNjQRJ0ltGpaDkcLPpcOacta7XmLNa81VbCMdZWstqKVntpzVG2OSt2V9XhqjrcNedcPHWXp+7yNtzehtvXwFE3WHP7yo7l6GJmGAvW3OGGN9L0HVeizWB+WHRn/ZlBIdyI/9vhp7w1v6fuiw3jnqbX3fS4m25Xw4VidhA1Z6DiDJQd/rLDV7J7izZ3YQ3H3oLVkjqymjqylluxFyzLqcNHEgcDLW9HaomGaLZUSZLmTVY3adZeittN16v5MzrhEq956KqShMtb0GUF963UQJ5Jk1gpaotYbXGrLb3myNscJbuz4nRWcWh1lO3Ost1VcbgqDnNu7K27TfE1PKb4m15/0xto+YI45HqjTb8za1kKL2SH8Xg76C87Iw1frBU4noRyw5w7701205lR7mDw0POevcFmMD6I+1sBf8vva3p9Ta+34fGa96q5g1VXqOoKVJzr6C3b3SWbu2RzFKyuMrphrqSPHI4vHk4cPJw4uBQ5PKAHJo0VL/KSIqmaqqrE5fO4uN2E7gmH2HmFXuvQNXB9i/u7Ip2hBjItT7ON9FrIYotZHak1V97hKRPVbt3jrrtcNacTEesy9b3eusfX8PqbvrkEWv5Ayx9sB0wJd4Khui/Vi1oTS/b0arwdyo2SnoI93g4lOuHjSqwdCVR9wXowM8qEGsFHn9kdbUci7XC4HQq1gqFWINQKmIaiYMMXbHjDdW+47gkRDPurTm/F4a043GW7v+F2oBFr1VnGmcJKdsmSX/FXfavelVq7ysucpImyLkmqJKvI1zF/o5g4FsYv+GLzw4nzBF770AVNUjnCjYy4DWUCFv+KJ+VyZ5yevMtbcnurHm/d4yHQddddqOytuY8F7bFYDbYDoU4w1AmGu6FwNxTphCLNQGYQt6dXg1VPuO4rTNKBijvdj6V60eNKuOGLdoKBqiczTJao/CO//r635I62wrF2hEg42gpGW8FwK0DEH2n6ww1vqO7BFXXd7a+5vFWnt+ZcShxcy69assvLmSOepjsxja+VrE8uP/Hok7vtAVt71OJUDF0ww55ezFm1Cd0TB6EvW5PXNnSJj5GCewgY3EyaZBtpi39lxb/ky3u9ebc773IVnK6S01VxuqouD05TvQjamsdf9wYavmDTbw6D4XZwLgjXTijaDUe74Vg3nOxGUp1IpOaLNQLxZjDTi6W70fwwmenFXirpfjTa9qUG4WjbV5gkq0zhWeuvFz17C8N0qhVLtmPJdjTeDsfaoUg7GGkHiPgjLV+k5Qs1vcGGx193++ouX911KLbgb3rcdedC7MBayRrqB3+6/NOtn9/65IEnbEFrqpqoDaq0MpNBEg0k33kBejeh+7IN/sT54jUPXQmD40Vam8VK0bWQxZNy+fJeW3LNnXM5cg5bzmbNWm0Fm7PidDc8uNrcwO0cui8C7VHc9iLxbiQ7SMQbgcIwGav7s71YvBGoznLFUSrbi71UMv1oahDKjMKZUaRCZ0qTtC/v+OXCz9tsLdOOp9vxZDua6ESinWCkGwh3/aEOWp4ibT/qsU0rcdPjb7i9dZclu+xpuEL9YGQYjo4izprjSfuTX/35VwNlf6wS8WU8/oy3MihTyoxRaUamCXH0BlndJnRPHIS+bE1eY9CVJEkQ1v14eR453GSQRlI/VonYIta1qMWZsrsyDnvK5i66XSWXq+x2Vz3umsdd93pQP+T1132Bmi9Y94cagXAzGGmFou3wXGKdSLwbTfRiyX48NUikB4nCKL3gfC7bjcfrwVQrUhikyuNsnSoWBqmXSn6YSA9DZSZZmCWiTV+iGSyPsofdC5VRoTzKZzqJ0jQX64ZcNXuKjtnqlkDfE2p73SVbahj1Vp2OojUxjPibnkDLG+4H45PYcnbJ2/IsJhY/97XPrVXW7CWbp+jyZJ2roaVF1wFHzFYbVUTk4sF4I17hSNyvwTCMwG/wy77sq9/84rX9BF5j0DXDCXRdl8ifDhqtzyqTYqDgXYtZ7EmrJ+/yFNzOvHMdtxWPC6HrJdD1eRs+f90frAdCjWCoEQw3Q5FWONqOmBLrROPdWLwbS/TiyX4iNUimB8niMLPkWyj0U6lmJN2KFvqp0jBTneRLw8xLBUfjUaRIxYvTRLwZSLUi5WHusGshWYsWBtlEK+IuOVKzRB2qZSj6Kc/h0kKOTUXa/sQg4qu7vDVnuBtwlm3+ttfb8jhrDnfDFegFbvuX227+9i0JOumoOizpFVfe7isi1c5qeNmbdrWpJtn4R+Y1jpc5zVA1VDubW5y8UH312m6rm6V/wRN4LUHXjLk1DEOSJJ7n8SNohV4uXAs60ra1lNWVd/grXl/FO8ctGXK9nrrP0/B7m35fMxBA0IZCjVC4GY60ItF2NNaJmRLvxuPdeKKXSPaTqUEqPUxnBunCIOOIW0rDbK6bTLdi+V4q30sVB5nyKPdSKY0z2WE0P4kVx8lUK5zvpqqj4hHnoi1sSTZjuXEmM0tFpqGdv7n/gefuPzI4tLf07D/98K6nVn4R7QVj/ZC/6fE3PWtFi6mXio4iZaW8L7rvC4/cFRqF90b3hUfhlcySo2gNNrzBmtcSWz7sOxirhCltioteEBiRljXZVDgrkqLK6gve9uaHE+gJvJagOw/BlSTJjMUd0yN/3mvPrq2lLfbcmrfi9tW87rLLXrCboHXX5rgN+FpBfwtxG2lGIs1ItBWNtWPxTjzRTZiS7CWTvWSqn0oP0plhJjvK5obZTCcZKvqqk2JpmEu34vleOttJ5nvpyrjwUimPc/lRPDuIlMbpXDdRGRbqo4rFt7x39bkqVYl0IgWpEOEif3f5351+y+mf+vHVp173lrdfetp3fvmNaC+YGEWDbV+oF3DWHJYC+mkGeoGbHrrpt/5nDqYPRaYxV8dzJLfkatgdFauzvOau2O05qzW+4ko7YpXIRB4rJqesKmxC9wRC6MtW5TUDXV3XTejq5A8AFEWJZWP2lM2aWV3LWZ1lh6fmdldd9qLNkrW4ax4cbNfHW4LbdijQxsE22oxGm9FYKxZvxxOdRLKbNCXVS6V6qXQ/nRlkssNsbpTLj3LxWjjdiNUnpfqklG0lir1MvpMqdNO1cfGlghPpcTrbi2Gin62PKvVR1Ztw/2rx6SpTC3ZCISoSVqJ/duGfv/32t59y5ynvvOMdO391/6HYQmIUjQ3Cwa4/PAiF+kFr0ZJm0j9b/dnFd17i7wdcbc/+5EKKzyxmDnraTnfTZiutWHI4/PrKLmfadth7MNNM4e64oEiaaNJraIqG7s2bfyfoE3jNQFeWZZNfCqfJ5G8wGNi8NmvCaslZ7CW7u+Z219yuqstWtFnzVlzcNvxknryB20441I5EWtF4KxZvxRLteLKTSHWT6V7KlEw/nemns4NMbpjNj3KFcb44yvsyLhOoLaqaaycrw3yxl0FYEjC/6FibFMvjXKYTb84q1UGxPqzWh/V0Pf3rQ79JDTIFsewceSyU7a+uev3f3/7mdz7wrjVYCzD+1CSeHMfSs2Sg43M3XMlZwt/xPRt89peup9eqtrWa3VqzxZnk4cJycBxaq616OnZX02bJH7Hmlj1lhzNjW/IfciUcA7ZnWnolRcKnZHLnnaANd7NaryXozummdF0fDAbJZNIVdGE8UH7VUbG76y5Pw03E4657PA2ftxnwNo/iNtiNhjuxaDuWaCcS7USyk0x1U+leOtPPmJIdZLODbG6Yy4/yhXGhOCmWxsW18Gqpn6sMCx2mUehm6pNydVSsjUuNaeV4Uq5OCrluqss0EbeDWmPYaE7bz6/tz02LWbG41LYsUatvue20v7n9jec89hEHON0zV6QXjA3CWTrta3n8HV9kFHnC9sS1910bGATdbc+e8HPBcTgwDrt7PkfbZaku2xurzqbVXl1dK6KHsytvd2cc9uhashyfCVMdNM3QZFleZ6XbbOMn6BN4dUP3GPukpiKlo4G75+mCKsSzMavbEs6HlqKHVzNLjtKap+b01t3+pjfUCUb7EX/T728GAq1gsB0KkfE23IlFUCMVN+fJ8/GWDLaZddwOcvlhvjAqFEeF0rhUHpeWfUfKg0J5UOiyrWIv16Lq9UmlOas1ptWXSn1aqU5L2W66z3ca41qtX20MGyNxsug6nB7lwuNYkI8GIPLX1//t62/+mwczDznB45l6EqN4pBeO9ML+lr8iVzxN75a7th5JL9nK9sQsFR5FQ6NonEq5Wt6V4qqr7VgtL60UDzvrVnfd7ihaXEVbqOpzpWy2kKXSLRFCHF2UJFVdn568epoubo1I9gte99ycv19Cnkc2LFZ19Gk19+r+v8F/SYpgbsWGOx1vbIa6XoAXeJiapX3VPM1XHXTN7fPw+WxwnJsTP4nHQBnc6RKkbDu9GlkKVL1LsUPukt1TRvFirLwLY+Xr3kDNG6j5AjV/sI56KaJMjkbbOOSm+olUP57qx9ODZKafzA7S69JP5/qZ4jCf6aTi9WhxWGhS9dKgmO/mKqNyk2q0mVZjVq9NqvVprTGrH1fqs1qVrja4RoNu1Ca1Ht0d8aNyt+ROuldjlpJYCVIRrxj8+xtOfdOOU285eKcNXEkx7Sg4Yr1YqBXK0wVrds1T9S6GD8b68WgvFu3Fwr1oqBsJdsIBXKsH3U2Pq+l0NuxODPe1OkqrzuKKu7BqTy05E6uepGPEDViF1cDgREl5la11NdBFkEUk3CKLcHObb7Lvkor71osybsDNqcBrIOqgEH75P6J9izQx7E1UwE1UCZeQpCKpkKCBqAHScCJ6TdCaC5A/YnH+sF7h1Qhd0gVvbOGxsWGHrui6oaugDIReuBaw562ruSMrmUPu0pqvZPeV7P6yM1BxI5tUzUvEF64FIvVQpB6ONiKxZjTeisdasVQ/nhzEUsN4ehDPDJPZQSo7SOWG6eI4VxzmisN8rpPOtJKNWW0g9OrjKoFupUW32ky7STXr03p9Wm9Szcas8VKpU/UqU69zzRrdqE3rXaY75AaVbsmf9u137Iv1Ywk2GVOSb7r61Lfc+LavWB7wQPBIcSXeT5bYiqfi81R8Z24521l0JwapeD8Z6yVivUS0G490YuF2NNSKBFthT9OHwYMNp8uEbnnFWVx2FZad2WVL5GC46Ms2UiLgHvAqgKRqr5qWhu1SBY0DkUNUkM3BNzYf1wFEkHhgBaAkmClAq8BpIGmGQrrwP6xNv/Lc5kbfKhiElFshPH6CArzygu7jhVu6vWoe6KsOuuvP/dh+bqO301beQpUAACAASURBVLF3VLKttCtr99Xci7F99tKqp2wjuHUEKoQFjuA2XPeF6/5IPRiphzZwi0vceDueHiRSw3hqGM8ME5lhMjdMm1JnKuVxoTQqFPu50iDf4zsjaVAZlAq9QnVcbdGtDtsxoduYNVp0q0k1XyoNqlljGwS6zfqs2WV6Q3ZQ61dixch++95EL57nc2E28pYrT3nzdafec+T+pelqSa8U6FJqlKGBffDxrz25/Mv0OBvvJ005FrrhdjTYCntbfhO67rrdWbU6KxZXacVVWHFml9dih/w5pz/tGXIDVuVVMGRdf9W0NBO6OgsSByTUSQOQAQg2FQAeZB6HXFoDGgwWdFE3VA03F/8j/h07sdOQXwXjvVXsWUyRyMi/vsnyutrvVfNAXyPQJc9LB42SZ/6s156yusuOw8kFR9niKdv8JFR9Dl2CW1+kEYg2QtFGmIy3pj45meggXNMI2kR2lMqNUvlRhki2wdQqk2J1Wq5Nyo1ZrS90W7NGpBAu9oq1cb1Nd7psr0W1G9Nmc9Zq053jSotpN/l2nWvV6GaTbvfYfp/uNQe1fCOzGliqMeWyUGxA7VsHvvldy3cXBwcTkEyxmZrQiHUT33v64VAzEmnHkoN0kS4n+ql4LxnvJWPdRLQTj7Rj4VY01I54W35Py+tputx1u6u2RqC76i6u2tNHfHmbJXQ4kPUkKwkRiWB1pA75I7b8P/jSKugsyBzilYBWIug1EMICaCJOUHlEsSHhivj/TtE3VrDkv24gda6ig0xEMXDCvNH9beT8g6v9x/nBqxu65sMirxD9+0DNN3OuhMORXrOklpzlNUfJ6qsgxUSg4gxW3aGadwO3/mgzGGuGY83IMXagVLKbzKKvYjI3TufH6cIkWxhni+NcaVyozcqVSalJ19d33KRbuVbG4l8t90uNSaPH9vpcv8t0W7NWm2p3mW6P7b1UOlyvxXdrbKvOtNtst8f2u7NOa1hvDCqHHQsdrp4ZxHvQbEGtCbUUJOJSND6ONaXWp7903VNLv0z0kpEWrskLs2Kyn0r2U4leMt5NxDpxc6EebqMqy9vyeJouT8Phqq25qlZ32eIuWhyZZX/RYQkfcScdvpR3JIw5JJHEPbj/OC3n33NVFXQOFAFULJSCs2SQcGVEkrqEmJHwFJICAsofW1F17LC7jkzzlIazexRzL6j11e6r6FECvOqhS1qIAbqki7RMeRJuZ9LuzjuW44eCLa+navdVELfHQjfS8Eca/lgrFG9F4q3oMfbbdLqXyo0zuXG6MCagneSK6ERRqEyKlVGxNql0uXaXa7dmjcaknq6nVn0rlUGlOW32uf6AH/TYXptqd+iOieQ+13+R9Lh+RxzUmHaDbvf4wYAddCbt7rg5pDq/3vtEh6rl+8n8OFGTiwUxFaUDcTqco7MHg4e+//TDZaYSbcfSw8wAhuFmJDVIvxS9kU7E3/L52h5vy+1pOHDgrVpdZYu7RCjpspZAybMaWgoVAolqYqpSBAyvovamgSGCJsO6YgpHWxkhquN/QybzVZLUEbcmdv6oxZ/jdN5TmJ2FacrYmCK/COD/nk7rj/CbVx905yPtxjszsBNWRUPINTK2iNWZtrnydnvO4m8go6q/auLWFaphKLyJ22gzEG+HE+1ooh2b+10Q4+06aAvjXGmSL03y5UkR58njUmVUqk+qPa7ToVv1UbU1adQGlVghWhvU2tP2gB38/+y9CbRkaVUm6lu9+r21ut/zNb0UB1AUGQREcUJUUJ+KdNvOtsosCAqCzIjyBGcUmZGpIBmFGqkhKzMrM+8U8zzPceKcOGOceZ7HiPjf+8+5N+pWVhZW0VWQYq78V2RE3Lj3xj1xvrP3v/f3fVvxFNEWeZMXLEFyJNmV778kTxYChbI5xuIkX5EcmVNXor4yffn28zcyCsrbBK5O58oAtcYyWBHh4p0f/YsBP7SAjegL1MRwhyjMimzMjaVJht5d4O1zgy7XbbKNOlutryo1plShChUyX8FzlWWutDgqzg67VLM4zjWQamlUoAzKA15aDnoETpyv6kdmvb1NlsZn5WUY2GB0jZLA27o2sB3gButoHW6BC+B6RHe7J3Wq4yCfATiL9hDDabsjfQu7r5yclV/V3/+wftO1Dt0MtwmIA+CXeoXC4Kg4yRVnuSZVK6P5odhtHIfcK6E75LpDtjfiBqf6t5B6sVDTSJsG22Pcwv0tTqo4rZG8zTIateQxzmBVT16pDClRrM7JrqJ4quTIgiUKlig5suKp91+yp0qhRls8Y/JKoCmuwiqMqK/cWK+0jiZYZ8mNKRVZKhPGQRkPPXPXx17y5hdxMdem2jNlhhooaqC4jVcWlYk0mUiTsTgeCaMhPxxwgwE36HHdFnRyrtRXcNBRlSpWiEIFz5eX+cL8oE6Uq2hpyPX2OheLk/xg1fNgnfZa6u7C+AV7Les0X4baiM1xWuq7uhEq/EZmt6qYWKbnb/Q10I67SA/rOX/qh10RdXehfheEU6Sevshch+6pw3fF3S2I/cR3/M0a9sfDzbF1eGNSq00rNaRcQ8s1DI4aqeHlOlFuEqkzG1npULUu3egxzR7T7K9aWdTNoHtCb4Q0qQk/mksTVIH726WK4hpGGcTKommdZHSKUgjVVzzg2ompegrO4ZItS44iu6riaaqvq76ueJriaZwhiLasBYYZ22Zsa4Eh2jJnCLyj8K4quApniqzGcupKMljV5gu1vUa/oNiMt1U5Y2ltJN4h3/upd/WZ7ogfISpCudQqWFEuhajIiB9NpelUmk7EyViAW/QhNxxywz7XhWONuGqDrTRWUJFfhVMXSpVlsYAcNchqeVHITw6PRvuXOhdqWMkA6hrmnXDcYXaYMx/JOE4LRVcc+a/Bww2AnZdg7W+Bk8ZUfwsC3V4beuBISrBigXLL+OIzX/jc7/uxH1j2EeCCxIXzSjPKekZf3wm2H9L7jaJos9mcHmSz3W4hayXN8kzVgVtuJzZFAyTAV50sF4BfhZeX7RpsY9hDOjmOD+l3PzIvvsaibnoVTPwk8iFjOSNgZPPma7NKdV6qIqUqWqphpQy6DbzShNUpuHbQ7a9aXwG6C3mOKcgy3d8SKgbjrYZTOsFZK95iaYUSTE60eFIk5sSsNWxaka15umhKnMbzuiDbihGYTuJaka37hmwrgiEKhijbiu4bZuyogaWFjhqYEOSOotiS7kqmL3MqQQmIFUqqy8n26vO3ferugy9LPodIs4WKYDpKWDhh4bi5RLUFosxn0nQmTTNa9UQYj/nRiBsOIZez3uIqzRS6dbpSJVOLPLxcQgsNqlbGioX5YWF+uDe4UEaPVh4ZwVrQvdCNIjgr8OsJXc0BMSxGsUnEJpEL39wabDxFWeiAvXl+10++5Zd/592v+vBdn448F+6ETxLm07POdzz2Bw8KwzCyF2fDqBzHyVg/TuCvd73j9PSzZTOtT53UyVLoJmCTVuxPfEge/C9+xF55bUIXtuLX67UTwnmzIfClSKjMS5Csm87jq56CbouEdoodqnoFdHcJ80QYT8VJqihAEBlZqiimLBYSbN4S6pLSCEJZ4hJGyjitUJzOiqYgmgKvcSRPojTKp4gVDFGy5GyJpiSakuKoqqsZgWmGlhlaRmCqrqY4umQb6dIlW5UsSbZEyeIki13Q486khtBjTqenxPCXf/t5rUkTE1DSwAlziRsYqiJzaToTJ4g8w7QFIs8QeZY9MxXGE340hiKnXoertflKi6s0VuU6NHmvVMlqhahUiEqdrpfxYmmZLy1zB9OLucXlIdcxA3jK7qJuBt0k+TrpeDcAQMtdCF0JrCWwdmACHXg+FwORA9ijf/OxT37dT7z1/LtwIFixGrnmZn1vgpBNkAIAnPagfvDQ2G63hmG4rrs7GpsTdpcHfM3VtmCzYujEC7d+crz7TatWWxhvNzFkXF2H7gMd72yIuw9rK5vNxnAzBbk3E8dlpFBa5MtoIZtqWVuW68tyA6+0T6DbpesnqXI7NVvtjrj+mB9OhPGJGAiSkwl9mRWlSA1nTUZwON5mOXPFmxxvcJqriIawkhlKIBF8viAWoi6pjmaFtrf2/U3gxK7uGbKl7O4rtqrYqu4ZTuz661BzbMW2FMfUPFP3DT3QZEcQTEZ2uXsKd9sbY0yOKoPKcDniTIHWGN7nOH/FegxlEZi6gEmBusB1DJFmiDSbi9OZMJny4yk/nnCjsdDv8rU2X25x5SYLHd4z6FbJWp1u1Oh6hSyXSdjvzWN7B8j54vyAU1eQ+32S6GXx9quIWg/0iT205zfpHjeC3SAHABNsZGCZQHGAYAD6l976nMf/0ROf9KYf6gCkD2Yi4Fygm66eXW6yqavZ+9898+B/++k/OQgCjuMcxwlBaALTBjbjMQHwdV/ZgmQdRZsgvgK66+vQ/VeO9TYtWqS9vvV6rXtaCAIHmHWsUlrki4tcCc2npOVSHUK30sRhsO1Q1W5qdH6SKkPojvheBt1so5uK+BYLZTHlxnNuuhDmuIRRKrEyaN5iBYuXHUnQOSs0ZUuSDFG1FJqnBFUwPdP0rGxZvm35th04TuiKmiTpsmwouyXpsqjJpuvptqPZpunbMK9OTNkTGJ1kLerMrZ8sD8sves1LzK2LK4wcWnNuSZokZRGURRDGcqmhC3k+EyYTbrSQ5wt5fhq9GXR7fK0rlDt8pcVCS4069LisZdCtQp1jpUIVS+RRkdg7XJy73DuL0vMsWGW3WbzdIflf+TgeiS+nV+ctbAFtBFvhI0EHqgBWL/v4C3/oTU99+p899c7ojv3t/kf6H7lxeuPEnYQwQoMgOJ754Lpuptz+6t5a9r2O4xzvn0FsAGMezmQg9tmOlsgJCGWFh1vajMN3HHVButfdXI+6D3zYs059DLcXMGGO7RD4QsQeDi8XF7kielTCcuVlvrosPhB0d+bmI7435gcTYXSSLc+hjk9FZ/xkKaOMQTE6RSo4pZKcsVI9WTQFSiB1TxMNQbPVGESarfqJr1qa7hhO6PpJ4CeBG3mWb2fPOKFrB85uOaHrBn4QJq4XOr4frKMYUupDPVZZmyZ1/Kh7+Iq3/uGl5iGmMohEK4kvRRbjrCgTxzWUNJaMTTI2uVQXM36cEqrnC2m2kGaIOJ0LkxmUKPb7QgpdrtJmq81VvU7Xa5mjAFUvE5UqUy2RhUP0UoG8XCAvXurf2Z93soCzi7dfR9xmQReWvDfA1XTTkj1gLwD2we5HvvUV3/64N33Xjfanu6B03r3lue/62e9/7Q/cyVzQgQkAME0zi7RBEGy3268i6t5/jzCZTN74F294/C987zN//8ee/MtPeOP7XucCk7eYLYiiwD0N3ZNC+PUy1QMjFxb04uPyABzIASIfuKiGXOpdKKJHBfSwiMFxHqeh26Xracit95hGWp06nkswFvoZdLNsGermNRRV4d5SCgRrayiBRKkEJqCMSqmebAQ6zi55jVtQyJLGBJUfzgbz5bzcqLT67Sk6W9I4zhAzbN4Zdqutmht5vCKMkUm1Vau2amNkwiuCFwazOTqeIKPxZL5c4ByBsosu2i70c4fdgw98/oPna5csEPRohLSUHrXUQaht9ZVDLaQZpiC8v1LXkhCwlIljCrJD7w660xS6PbHS5asZdBtMo041qlSjTFSLeLnKVArE0T2TszniYoXbPxifq/cr2Vmb7Q93muev8CE8cl9KACQowwAab4FmgtAOgXEbffaJf/4j//l1j/7ev/2+9yB/8ZHpO/+FeP+3Pv8/PeYNj39H6Z8+ff7z2Qb1OE6eVJsf6pvMvh0A4LquKIrZt6P8YuD37lje9vTffWqFy69iXPDpNfA3m+DewHvSH0rSOvP15tADHPkddNcgXscJiB1gjbj+PZ27C3DG12FxmdoyQYnf8V63cwLd/qo5YFvZMJER1x3z/YkwnIrjuTRB5CmqIpgKpfNDarCUMdZcofyiMannW0e1QXWEDWVLnGBjgsOHyADB56LKDya9GTpVDEW3dSdw/Nj3Y98NXdM1dVv3Yz9IgmgTxds43sbRJgqSwI8Cy/U001JM3Q7dEJL+AtEXUQl9/h+/4DN3fc4AzpBFljpXnQ8uNSuIBAVGvWU73z0s9I76eAeTkIUwG1G9pYJk6N1F3bkwmQqDgdDsCbUuX+tw9eYKjlypU40aVS8uS8VlscZU8tjBucEdueWlhpDPI5cL7aNwE27A2gs9yIjYbu6NusfUvwf4LB7U01drjMLglJ3nOyoj3Gpnn+3KMY0ohBdoPwG6plrMx/KffNwrnvaUd/z4t/zRdzzt9d/zrLc8+Wl/9F0/9dc/8U0v/i/P/Pv/9pO/95zuqBVvvKwTHEc+gH8F1CXsurAJJO1AEuUaBDFUDoYBiEMAmbNbWCyOs+W4uhdYa5DosKwIK8yCyQ2D3vf9zve8f/+fFtuJAjgl4ZxEg6+HwvC0vn0dug/qTAAA6nKPD9Y6AJ4P3OI4V5gdHc32jpC9AnZYJvI1qtRkqi2m3lk1GmS5w1T7q0Z/1egxjSHXRuQRbswZZzkXRl280cWbU3YwXQ3bi3qhd9ScNTtIZ7QcIQxCSiRncLIj6Z6qOkqw8azAUExJs2RZF2qtsqyLlmtarmV7tuM7buB6oeeFnh/5QRzcf/lJ4CT+kiedra8GRghiNdIDEH3h7Be/cPaLN1+8zQUB64g+SFwQsbYsBTprspRCLAUU5RCUQxB2NiaHvWXnsLVXHOY7y+aUG2XdrIU0m4qjzqre4eo9CGDow95kajWyXMGLba45kHttrpFfHBzOLkOWFZnPz/aL49yMnYTQqzm04Ym7PpaPZ6A75v3t2iMP8lPavWzjheYGeEliga0LGcrw1gl1Dmy8xNFCRwebKNnE4SYOtxsI2DhtpaaCAxCBxHbPXT77h3/+qje8/y1/eubtbzjz5pd8+A9++Z/+54//zfOe8ne/+NPv/o3nv/MFU7adAC3eKgDYUKcAEtNxzHDtndS6XBBaQHVgWYszAC8AngQStmFZl7EDMdqoqoG7HutHghMLDjCIhLdAsk2A5Rj7xKW33vSmZ7zkB9525k0q4K9Dd/fRPuQ7oQ+hm9opJD7wLGAUx7niDObJZSJfIQtVqnjCIiqUsXxnVRsKrYnUm4jdAduEM/jo5mjVPmjfc7l+bq9xvjzKjcjOUpqntlIzhEUWLIYLBCXTK40VTEGyJMWWFUsyPR0uVzNdzfb08azvBpbtmo5nO57t+o4XuH7oBZEfRH4YB/dffuLrkWWsbSXU5UCz4aUn+tLdN9M6uzL5C8VLcqDhMsUYHGeLkq8KriR7Em9ytEJRMknJJCnhCw6ZMuPpajzlxjN+PGaHHbxVHOUv1i/cWfxyl21lzq8DqdMX2222XqfKVaJ4eXihhOVqJPRhL6JHFbyQRw4uds/lJ4cjbuABOwCeBWGWQneH211g+aoSwS3YOJEZbm0vUiGOtpZv8yDWwNYGoQ4Da+QIErcGWysMGVU77vNAeW4CuRl+qjyA4pz1GoTGRteAyQP9i+jd3/nSpz/mVc/4srJPb6kEGH7EWxad+HLkamADBxwGADCehziqDCISrPLsXoG7q6Kd622rdwpnvyidv+TXK1J1onR1wOiAGomlCn4R9XssYI6M9i3DyyFYxyBEtwgL6Hfc+PbH/8J32UDTN2K4tVMe9Uml6nrUfZAgziY+Z9LcAPhyKBbHudI8VyWKJTyXRw+OkL3cYr+0zDXoSicd+dGiKlU0nx9fPhzckx/vNbHykGlN2N6U7U/ZASKMl9LsxL0Rg3IfWxJ3yxJFU5RMUdR5UeMNV/Mi23S1MHFpFl+DyPGsq+I2SkfsXXEbrKGOXItNWmeXEumC4G1/9/Yzt3xWT6wAxHfsn8VlirNFzhaVUHdBsDI5I9IVTxYsnje59JalNQqXMUyCZC/SWGaV55kw6VPdFl4fSf3WqgaH7o7uuTQ4fzi9XMELrVWtyVQ7XKPJVOF8wPl+ET3KIwcHo0v5yWGP7lhAD4DnxPbDC90N2Cq+EYBE9lXFU3zgOWvT39pROk1Gc7UIbCTHClKNEK05IQBu6ESRBTZ+Kjfw144R21ri634gBVtFB5wJpIvY3T/80h966kuemudyGxDBf4oJ4MDz2IGtOtOyXS0ILLAlgfo3d/zTU172lG9//qO+42X/6VEv+g9PefMTvvll3/q/vfrbHvvXP/otL/ru73vBE//+4t/RAP/ldz/36W/4/lff+oe//tHf+bZX/MCvfODlOGCf/aJnv/RdL3nB3/7ez73iOW96/+tdYEoup1sSTMZPVZivl6keFHih6ze83m1i6ITiUzpRGB2VEUjTLS6Pdqu0hKXmyrLQSkfOV9F8cbpfmOzXseJU6JPmAhFHS2VG6iihoktpjokzXEZonVACRfE1xVNlF8oDJFvaQXcl0rqj+rGjmlIQOyuejNa+698n3maR9grE7h4G6yACSQC36L4Potlq8aa/fCupMmpkqJFx9ug8KuB6Yv3/kPahsjzkLN6IdNVXRFsQbUFyRAmKk1aQKKIuCX1JmThp4riOLeT5hBsNVt2JMmytaofTy+fad97duuPy8EIFL3S4Rk9odbhGnSpn0C0sDmE1Hs0XpkctvKGuJR+43tpN/Z/ua/uwy5kf1OdznxetIQQjBwT7vaO/+fjfv+vMP37o5n/+wJc++Jcf/et3fPivXv2OP5nLuLJ2bLD10kzXjGN/G65B6Me2rLCqzG3ibBMbxrG5hS4ZshISKqA6q/z+7E7Ox0CSwBawk0BmVRDDA7wBUZzEAIihfmv1zp/545//4df98EtvecHT/u7xz/rAD/7PG371977wgm95xxMe/ZdP+cX3/cobv/Tm25DbaED+2sf++0/+44/9yP/7Q4/63Uf/6J8+98UffR0H+KHWOXP4yQ+e/cDnDz/rAFP0uQSEm23kGMZp6Gb9rOtsqvt89vd/AK2Doa3YOtpCO//palwYHVUWhSpRrDPlFuQS1Wt06Wi+d6F79s7abYX5QYMo9dnmROyNhW46mK83EwZ9sjXjBpg8Q8XZnB3PViNMnNMawds8n0oIssAr2ZJsy4oty6bISozuqE5giipnOipGzE1H8wLHD70sTw7jIErCeB090Ao3oWjL1sYJQXzLhdu6iz6p0CGIBUcy1/YQH68MjrdFa+MYiSU4kuhKGW45g+UMNgUwv4MurmG4hqIKMhenY3bYp7ptojEUe32xnQG1tapl8bbJVM+177zQPbs/vlhYHFbwQglLe2mLXGF6VFtUeH8F7WM2XuYXCasJu6jyvwDdBMQmUPFw/refe8eP/vYPPv03nvrsP/ipX3jNzz/nlc955oue+awXPqvB1UUgimtRTpQAhPbGkxwjgPkorB3B6tlJJWi92SabJEp8LzTCWN8CO95qlsuBVPWegDACkM0egtCOHVmXAdhanrlXvfxLL3/ue/bfMwfIM9//E0//s6fc1jqjAfLlt778SW98ykcOPuQBIwK2kBBvvfFVP/La73v2a3/whsMPm8A3Ytt3+e1WWUhjFagmMM2tkUD7jpSnnBXBTt5c5oZ3nU11f7Te95n0TEo2SbgJAuC3F004SQgt1qlymcgXsMMjZO9wfvlwdjmPHBSQwxZd63OtsdibiL0B2+5SzS7ZGNBtXENWNsF7zMoiCQXFxDmhYIxO0RrNaCyrc5zBQw2QLSmOojqKYkmyIRrpRldUOc2URtOeakh+6O42txluk02cbOKrojfchCqkkcS33XP7S179+/YGFpllT1UD3YgtQqJWOsdbohFboiMTEiXaouSInMGuNGalMWnOzK0MhtIIUsOhZUeaMBMnt7iJjqT+QOpkG90dgJtM9XB6+fLwwv74Ytb9ziMHeeSguiwWpkfFSZ62CBfYIfRqg1avDxd0NyD2YH1IHPD13OJSjtjbxy8VhULLbO7he3vIZRNoGpBi4AaxaWj8ehtaIMRdmfBUE7Kp4JK2obwJbbDRt14AIji3MZTCtQqAGQNVchjaIjSgGsCUgEoENGGQsPVg6CBJOu3aM372B17z4ddOwOLxf/YDP/b2Z9128VNrIL/4huc/5sWP+efbPxjE9tqPEuC/9oaXPfXlj33zp15pA1lSdVjtioPEYNfAT39pbPgGlLsEvqtb9+Ewp5WX60TI+6L0qo/SNkK8joO1H4KgMipl0N0fX7w4PHeue+f53l17k3vKeH4gdRBzitlz1JjNlNGQ63TpZp9pI/KEsrAxnA80WSoI1BhA22SCsxjJE1cGyxp8hlvRlmRHlm05g67lG6anG46q24rpqMNJ13L1IIJ1qV28zXC73ibZnStuo23krr0IxB/61IdzjXyUNodkV4lArPpaa9Ke04i79ZyNK7uKYImsDiNtBl1WXwkWLzkCZ7GMAc06GJuiTDyjWB3TqqTxRBn2xXZqM1Cs4IUaCYvtbbY+0QZNplrCciUsl0cOLg8v7I3uKaP54iyXGx7iGuoAK4YRbJ1A35uHJ+qC7SZxLbD2N2tnA/e3npLIGoDVJhu4aqgHiR85HgyyPgDyGsRglXA3VL7w4ve++nl/9jvPfdvv/Oybf/Pn3vJbv/zOF//sG3/teX/6W7/ytt/8lTf/j19/w397/p/+6ov/7Fdf8OZf+YM/f9GL3vqCl/zV7//OO17w63/+u7/6pt9+5V+86ssXbgWbzdZ0LUGotQsMWC0A859e+pinv+knm8OSt1Gf955fecZf/NQtzbuCLTD1RN+EL/zYS3747c/4qdc/a2IjkMAdA1+SAOw5rd0oCOPYdT1ZkGEysgaR4d9LhISHKuMwX2dTXRWxuyfvC91CL1cYHdWw0k35f7m9fsul0fni8qjJVttcvcM12qtGi653mSYcFc+0unRzsOoulCllLqfpZKDUIw66KOMSSio4rVGiK4mODHe56cqgm1WYvdixfMNwVDe0vNAaz/ph4gWRt9vfxmvY54BWJWe2xwAAIABJREFUOw8A3Xgb9Wb993z0vRE0nY0lR6YVJgLxlJxFIN6vHLQm7QzGvCkYkcmojOxKgsWzOiRRy66keJLoCpy9WsooKiOLlMY8F6eINEMVBNXmY3kwUnojpTeUu6cz5xpZyiMHufl+lSgW0SO4m6jfdqF9tjjLHfb3MQV5RKALz/Q4DPTuqH7H5ds+dceZz1z4/O2NczcWb//QbTd89u4vLQUSgG2g2jFvQd28HSqRgEboyJsN/PkwxnoxVvOmBXMwAMQUUC2333U6K4CjQb8r5phwMuMGcxFZeETfmc8BMwnxNtMPgAvicKObwHeDtS4BqQBaj3rdE5785mdOmaEPzJ993/O+7XVPeOfN79Y2cQSACML//s+/+ex//rn/529+YQFoyd3EkBcShr4EwNY2fYjO1K8jssLECo+hm20lUuheF/3tAPrAd+DGAm573Mix19b54t3VOVT5wXiC53b9oTpdbjLVJl3rsu3eqt1nO0Mu0xsMpsJoxo9hL1Re4ApGqDilEbQG5biMTnMWz5mCYInZXld25Cxhlk3Rix3T093QcgLTcrVo7YWJF8Z+VoXa4Tat9EDLIssxt2ATRD7skXj2epvwMvdLv/a8XbyNQOxuPc7gtUB3Nm61Xxstx6qvSY58UuIWZVeSXUlyxKzIzBmrlcEwBkWo0CtrqS4gYhXkmM8sT7KEOQNtl2+22Xq2460SRdg/W+YbdKXN1ktY7q7Glz9/6dOleX4mTTrLZgh8N3GyMtU6PlVB/V/d62ocYP7hjn944m895fue/7Qff+PPPeVVz3ziH/7Ydz7/KU940Q+fpw9pIChADYBrh+omdgC0TE0JFLAnBGMbLD8BYG+jAKxDWL1zEuBugK0aOLSYS21uYphar7mtbcAUPYbhexNvPUPkET5EGUBeBIf/x1sf/Zi3PWmidSVAvfDc7z/qzY/9QOUGDpiMZwnAfdnFP/y/3vTN3/P6x2GA0qBgCMRAdWIaAnNngbEjeVyX2j8wQB/wK3DcBixUbYO1b6+tw9b+QfdyaQ7zwAeGbqfPZp4YUCo0FWA7FFMWSxnFlSWErkrQGsTtV4Cuast2YMKc2dXc0DIdVTXEaO0/EHS9wE02sWHpYRxkrvmiLKwEJlfN2Ykdg9hO7AgqFkPN1zy4iwta49aMnJmRqfma6qnpUh4u6GYpdMbxbtCVBl0pYbmjyV5pnq8i5TbWCKE5M6wwr7fpGLGHo0wVwx6uJgH5Er3/nr0PfrT12c+hX/7o+Isfm954w+zm95RvmAGGA7oENAe4Hgy7EbRJdbbQ+NFPUZtA7KRWGVsNkljCAHhLaRYCMwK6bvFZsh368OUOAAaIXejAnsC9yMaPYsUA3BIgN3Cf/g+v+eb/8spHu0BSNsRvff63H/Xqb//AwT8rwFBDVwHmb5z5tf/8iv/45D/5HhQsLLD2tskGKAAokPCYmeycBvBxu/u6wc0D4vQqXwi8IINuAmJ7bVVGpdsOby4j+X8FutA+rn/sicGPZ/wEk9GljJ1AlzyBLvNAUdf0dcPV7MBUTcmLbN2SF8tpsg0fCLpbsEHQeQZaBJ0Hkf/CF7/A9q0EJDGI/a3vrt0Y+vIEuq9bkRWBqDPpLOiFkzhmaBqBYQRQEqg8TFG3tarVqXIFL0CON1Fs0BW4B2bqxVnuy7lbm4uaB5xg62fQza6P9xaZv1pGZFp6XccgNje2ujEsEBggUIGvgUAB/tLlHRhIU3ZcFl7T4hBY22Bjg62zBU4MHA/YFjDzePHW7pfvQs5+rvu5Wlj9zOjMJ3ofuYRfGM2mobk17MCHrhprFTguCIJtsI4CuAMFgQd0DqzuZO9+9bk3vPPCO8FGB4n2mc4n33LLW6qTAqRFOhsAws9UPvjmG1/+rlvfagEB6tOsCL5ZX79PyD1GbOZKtbu2QRbnvQ+ucs5+fZ66xqT2cOcUbxIoaF6DxF5b1XH503d+soHDGHL1qLtq91bd/innxyk/mfFTTMZOoEtQalpY1hlGXz0QdJ3IUi0YeEWVg61dQ+z0G18Buj6kBG9UXVlvYeb33ve/Z+/gshs6XuJaoelvvASmhpEdWYavGz4UHnfGbYSc757RPU331IcLujWyVKfKDbqSARiqNRbQLuNotP+J2z5Wn1fsrZlB9+EsU6UqfhjIYZ8VWpAH2yACUDKl2KrhWradmi7HJ2mxA6AhJAy7zjrFrQ9sG5g60M/kPvOjv/8Tj/n1x/3w6575hFc95TGvfNx3vupxT3r5Uz9y88cNx/Zg99h3gC9vVB+EZmhBuECHK7hhCUCABwQFVhbQPUEAyVoEyiIh10kMc3ETJscWWElgIUQLOFchgXQv4G+2ogZD7r2IzZwzTvOjr5u5PvgL0xZEQZRsIHfc2dj57tHHb/lIh248MHQ7p6ALh/fdF7o4oZIn0F2l0BWuutd9qNCNknALNhmA/dATZcHx7HgTxfDEhZu5NYjt0LRDM9h4TmQFG6/Zr8+WE9PXNUdRbVmF/WTpkYbuhebdH7npw7VZ2QHWIwDdzSZxk1DfxGYSaba1CkMJMo23pueKkLAcWFD4uNnCHu5JXgqJ/dlYLogpaO/qgOhC7+B3//ylr/jw6/7os2965U1v/KG3P+fH//4XnvHmn/7kwactWK82Ddh9VcU16wPfXnuQnriL5AlwNfdY62NDNk+aCkMFAYSuBd9RsPV94MAkKPa0GMoUoBDYTn9ISnVMM4/rFuoPHqj3f+UWhH4YREGq+PMOmnufPXumOINK3atF3Xp31YHz6Y/n5WbQnZ5E3SWu4ISSQReGXEZnOevq0P0qEmZVV7Zg4wUu5OCmsZcT2XDtR9sgAZGfuE5opWNsQsivjJ1GtzZFx4arqZasmLCNLJnCwwXdB0qYb83d9JmzZ2qzMtRypLnAw9jXBWDteeo6MdNk1lpHSgoUCyQGiAyw9eEcg20Sel6aTMHUeZ1SMdfQBQVCK9PnxCBxgEdFKwnoFOBv5c898U+e8djXfP87jt6FJYQPXAtoHtBDYOiJkEopNrB6lYBNBCUP0MRZjeEABQkaX8UbIEIDHTjFCO6vfbhc2/YTN4JlsI0JgLFJt86pqUMWdK8PLrk/Fh/iM1uQRPBfsPYjEB629u/I33Zb/qYHDd3JlJ/O+FmaMO+gS9Maw+jsV4DuQy1ThXHg+k6GXtd3tmCTbOINWGuWYgemE1puZIcbH+aQa8/09HDjt/qN+XJq+YbuqJqtaLaiOvLDCF1I806tCE6XqT5z7lNny3fW55Wswhxvo4cRurCaGEOaRxq8ktQ1ETaz17YJPBeic73droFu+gkAdgSs1PMCdmFSR+b0+zYQf1svXCu8izLrOQ2QZ77mGU94xfe++EsvJADpgwi+LFhDpELLsmC9jeEeF0CeFNwAR+lmer0GiQ/Lz1ArCgMttHB203twoEIC56JsIKMyBp4BYgtsIz2G1bKUP3V9XNhDROnVXr6O1psEZjB+7MUgKvUL++3Ln7j9oyUUuqWV8XyFKFTJ4zJMk4ZRt7vq9tnegO0P4ZT68YSfTvkppmAQvQqOqwSpUhSEbpYw85kNOmQy2aIM+eyQTXW/5pAeJX4Yw6buVZtD8TrK4KoZaiYqgg+3SbyFqWECIhh+N0GQeEHibaB2NO6Puxi58CLH9k3bNy3PMH1dgVbsD7E5JHb7QqfHt7tcC3a2mXprVX+g5tANt3801z9szmsRCJzYjjcx1OueLrycdC/TfV6aO17tc7nqc7sfc/xt0Bdmu/UCWFBPWYSbaOt7CS+ZUO63hfPzoAPKDrcwdG6hW9vWDxLFB7Bc/POv/+lf/MufedwfPvbd838obsu8qwZ66kgbAkj6SAcARZuNGSfmZptVqdOeRAQ8FYRG5Bt+4sMC9hbAQqGbAD/cGloKXQ+sLX+jc7HkgdR9KpUyXR/SedUP9yE+eXIurJN1somDrV/s5CsT6OH6tzf81Y1H/5L1LWtEucs2+3y7ScG+bpfrDIT+UBgMheGQh5M4e0x/CmkMCKZiuAbRS2gkYzKczfEWy5vQjEqCY/hE1ZFVR9ZcVXc00zNUUzYczfVtRZPqzarj2Tt9344FmVEystry/W/jTRytw2gdhkkQxL4feV7oeqEbb6LBuE/Q+AasDVuXNcl0DFETJFvMtAcnt7zg8ILLMSZFmQShY5i6QKRZZlg14gZDYTAQ+wOx3+O77VWzvWp22FaXa9XI8sHkUh7Z7wnNBl2+s37rFw8/8+XSTTWkVOznOkgrhqEnvlKse4Lbk7kED9nx8MridPb49G0aFLOkFF4yMvf0rHAVQyuyLVQWbKTY4IBKAP77X/UjT3zLM/7r6x73f77xO/7vlz32jv6eEUWsqsaQ0AGx68ZhJp/P9s7Hc/hg5p3+rPTKkLGPT65Q6R8H6Z+wb7uFF9Y17GtnJxt8e9dHYz9EnF7l5SfQ3SSb9XYdboJqv1Idl6pI+Wi0/+nznzxz/oYyVpiqo+qyVMGKmI30hW6HbdXJWhWv1vFam24NheFMmY348Vye4/qSsijKogmdwGRsISC8tUqhC82WJVtQjtGraLZqutB/0HZNyzFN2xiM+q7vXJXADDkj6a7t/rc7enOUhGEcBJGfqRf80Gt3Wzi53IC15Zi6qXmBq9ua6sLWruRAAGeiP9ZcsRbD2gxlEnhqNLdjU2H6os/1OmynvWp32HaP7wzEXrZaTH2s9ody5/Lw/Mfv+vAHbn73beUvdla1GlIu9vPDZT8G0TF0M1ydKque4Dbbhz60wHuVD/ErPJVBN0NeNnAoRW8CG73JSEVYIN2j7N+q3vER5hPf/bbHf89rnvTSv3u1GLvK2nfAxoLNNmBGfvpNsDB8Eu3Te1deRb7C+/hG+NI11hw6Bd1NOvqgO+9Ux6XKHDqnT9XR0XT/vV9893u+8I97g4tdtrU/vFQnqy2mAQOvOBhLo7E0SmPvcCxMBqtBl+h0ie6EmxI6wXu8GiucyXBGht7TgVdRTFm3VTe0vcDRTS2IfILCveBK7UHGqdrRIbMIfPo2kyVcgVsvcB3PrtYrBIVHSeh4tmkbQeRbnqnCkShyBl3e5HZsKlREUOgaDY1dswWtXtX5wkDGyrjH9/pCbyj1+0K3QdUKSK6yhBvd8507v7D/6ZsL/3Iwuae8PDwcX6wh5dKggKxm1wJ004839ZW9D4a3IE4STwfAMiPcAZgAOgYY/eNdf/zjL/jeJ/3Mk8XIcQHQoBYasqCsOIjSlu516F5LV6DsE4WDImAOE6z9OT2rjkvlWbG3ah9N9gvIUZdrXepd+MCN7/3wLR+4p3OuRlTgjpfrjOTRVJlMlclYGo/FMWGTS2OJqSiqoAsZRURkzIwHRJ81mdR1GebMUCJrC7INXTJkU1ItJUhgfpt1awWJz2wxrlD8XSE5uOJhvI6yvfEu5HqBm/2ccrXEsLQfeo5n66bmeLbh6CJkZfIZCxJ6QZtsFnXhLBWLhGaROoYqyEyYjNnhYNUbicMm3Syhpcqy3F41e3ynSddLaOHM+Rvubt2Rm+8dTmHa3GarrVU5P9urLyrlYZFWSdi12kapDOZUCptGqq9Z1N3AQhOkrKQp6xo6TEG3rHizDfqT2ie++F7c6lmAUMB8Doq/8XfPes4fP/1nfu/n1ASGXH0deFAevAnAxo6CE0FeevbeNz+/lk7oR/C9XHtR98QRMoMurVDVcak0LVzqXGhStaHUq5OVMgpt5Q7He7cVbz5z/pM35b50sXdPnayPpdFcm821+UyZYcYSgxtFFFOxpYZTJrWyV7zLrQx6ZTCsueIt6Eqxg65kSoql+InnRa6SEi2ugO5p/dBVFX+7eHs65Ga4dX1nvU0qtbKkiK7v2K6laLJmqLIurRQo91tpDKuvOIMVLI63OcHlKJ1YqmgmP0Ck2VJDaZtc+TSiz8fKuC/0u1ynRlTOt+/+xF0f+5tP/tXtlVvzyEFfbHW4ehE9PJxeLKL7daLYQKuVUUnxpRhE0SYdJ//1S5hhJQ/O7A5iSHgMPRDZINKALwD3pe9/3dNe9ezvfOUPPukvf/pxf//j3/TGb/vf/+q7/+tbnvSRo8+b20gKbBesrU1kJWEMgO7a16F7zUEXnl1JWjpIo67iybVJuTjJN4laEcntDS9eHtyTmx7U8HKXbQ2EbpOu748u35S78ZN3f/LT587cUb69vChPpAmiLnATp22KMAhUwRbSYqksGZNmzGPowgnXx+gVZThhRFYd1QltJ3Q0U/MjH6dw6CN3EjOvgO7OGeP+dzKlUbbL9QLX9Z2se1QsF3RTsxxodiWrkqxKoiqw6irDLauv0sXAK4vFQAK2hhE6lhncINIsdcno1ZbV8+3zn7342Y/f+bHPXfrMhc65BlWbqKO5MWnQlTyyX17mmkylRhbyyOXD8cUmVquMSplY9+sO3bQRBB0UAkhg9G0QmJAy6fHAed/Bme990Y98y4ue/O2vffo3vfRb/+PrH/tNr//W3997CwdMaxMJjgEJFOvITmCNyvCc+0A3I0Fd3+s+gjH+X/3RW7AOUtpNmtgFa9/Z2LVJuTDO7fcvHY73ylihSdeqy9LB6PLRZL+Gl/tCdyQPptpkKA0raPls7a4zd5/5wBc/8L7Pv/+mvZtq8+pCXuAwgi0JjWDtFW1QjJnCIxtyDdNmUbIk1VF1T9c93fBMwzUNx+iP+8cukCducjv1XxZXs4dXvb0Ct5mu6OBoXze1rJmk6gpcppKVqTLVLqPShLjEBBQVEMakCH2JiNMe2anOygedvQvVc3eV7rj56KbbK7df6l8qY6X2qtnl2k26XsXLdbICjUSoUputNehyYbGfm18qo0etZb06Lkcg8GHvNPj6JszpVPvIghMtQheEPpRnQG19DLw1nCdqLoVubXrhrtIZ1CxLYMAl4wB4euCm+1sQQCM4SFyONut7N7q7k+o6dHeH4utwZwsSyGK4N+oGwM+gW1kUW3S9wzYbVLWCFbPJQxWs2KTrLabRXrV6PNwHTpUJoiOogdaxRgtvVabls8WzZ27/9A233HDLpVsOmvu0QdEGzcCcGc6n52046lq0JTj7yzdkS9Zc3Q4cSZerrZrlQw/X+wferwK6QeTfc+mCZqiKJnuBa1i6aRuWZ7prx0pM1Vd4kyMlYrGaT6jxkOiXh8WLtQs3Xfzip+/41BfOfe585e4W1kCUWY/t9oX+SB6NlVFWpurxnR7fgX1vLFfB8w0oh6xUiXxufmlvcL61rNcmlWsEumtIsFo7IPFgmzWJ0yp9Os0nWrtmbMmQWxxJIFwBwAf2NPBJ1RRky4Bt4Q2ccZbAhn+0q45/HU7Ra+ZXXnMJMyz5nyTMGY25PCwcDQ7KSKGMFspYobIs1vByg6w2qVqTqjWoWoreZnvVhqc11xvwg5Ewoj2GdmnSJDAVm4vIhJ0MqeEAQqJ0rnDuc3d87hNfuuHzd3zhfOFCfdwY4xOEQaf4jORJ2VLc2FdtfUFiK5G1XCtjX6y3CSwsWboXZNK5JErCLIvOeFTxOgoiP2sFn973ZhzJMA6O8oembcTrSJQFTmBJmugOO/ulvculS5eKFy/kzp87vPvs/p137N1++95tmLTIpPaZP8ZcnM7F6VQcD/h+j+/1+F6X63TYVnvVbDGNdNWbTLVOlapEoYQd5ZG93PzS0eTSfucS56yi1Fj8uDm0AevoRK+bRqqvWZnqdGK760FlwTLerlNTkdAFnp1qiQygW8CKYBt2R3/OiB7HbaHdT7hm0PQ1fSPXJHTTZCgTD7lbp4939ruXs0l/cFzYg4PuQkPhpBJlsZAXiLRARAQR4BJ8YWWzpE5hMo4I6ISe9rBBa9Y5qB6dP7rnUv7yfumw0CjvFQ5uvvPWsxfP5Uv5Rqs+GPUHo36r02x1mqPJEF0uEHQ+nU/G09FkNp4vZgsMmSHT8XTUH/YGo35/2Gu2G8Vy4eBof/9w7+Bovzfovud9/3Tn2TvuPHvHTbfcuH+41xt0B5N+a9RsT1sDtD+nZ4SIszojuoISSpgEJ4nC0QcnRhlw5J847nMZbrsdtp1RMjLoNulaKhsqVfB8CTvKEubc9HJucCB43LUC3az5l+1TT0Jn1lWAXKnMyhmsDSgDjhSoygsjSKc81vacfAds5/47y46vclG4VqGbqu1TWqrHmOTl9sXSPF9a5EtovoylU0uIShZ4G8eBt9FetburThZ1h/xwwA5H3GjCjefiHFUgp4rUScqgUAklNJJ1OMGXBF/iXYF3RN6RfBAZkaWHpuJoZugojr5cEZwiLJYLkiYYliYofDqfDMeDyWyMLheT2Xg4HmRAnczG0/lkNBn2h73JbIyg8yWB4eQyu6VXFCewLL+6cPG8rEqOZyuabLvQ3lnSxKw5lHZ0oSkkC5WJNGNQqIhk0M3i7UyYXBW6LabRpOtNut6gqnWqXCOLO+jmkctZc0gOxcxOMYu6sPGWOlTsgtfXLuqe9O3vg8X0Sr1Zw+kj6w1INiDaQoF9mCoFsz3tDqv/ziPtaQRfe9BNL8lJlGzBNvNzdYB5NDgozfNFJFdc5MpYobos1VPoNshqnaymOXOjxbSgigjmzP0hP+zSvT7TH7OjmTBDFYzQCcqgGItZajhp0pTFEDqNqyRtruRQc4CvBLroKIqnibZihI7uWwRPszKvW7rrO1ktKisXRwk0Id2AdbyOMoZzKoaB8oMwDrzADeMg41T5obd7aNpGvVnLGB2mbWSt3ZXA7MpUvMmx+opWSFKB07oz6MJBYemI3Qy6E2HUY7tdrtthO1nU3UG3TlZqJMyWK3i+vMwV0YPCYq+IHIzYvr5WIwDtNRMoqtlAu9xdIEsx8fWE7s6b4t7ZQFAKeLzSrdPp8/X6/d0RuPagm0qfkyjJiJDp6Ce3hTeKs1wG3RKary5LcFxYit76MXrrLabVYbLtbn/ADXZRdybMEGmBKRiu4riKUxa98ngxknlfoi2W1GnaZHlHIhWG0TjRUXhT0nxL9UyEwhASNdPBJTsyox96URImm9h2LcPSNUPd9XtM29AMNYiOvawgz9HUsiaQqiuiLFRq5ayju+IYVVfgV3WJh7ayMN5mi4fFM5azVwthjohwPOdxvM2mY5+CbnvVynCb5R1VvFQlYMjNoFvCDkvYQRk9IkzMhmYxsMKcgHi9XUNjql30+7pAdwfXE8UR3MueZkdmMfeqYXd35p668+8zJl970E2H627X23gdh5tsapuLm1hxlivMjwrIUTodG1aq6kSlTlRqRCUNvPUm3ewwMGfusb0BNxgLkwlMMqczYQYtBaXFQlygEjqXFqiaBd4VaTCkTlPGitZZ1hLVwLA3nuIbVuwZoTOnsDE28yIYOTMehWkbWXdH1RUvcG3XglVix3R9aLOe0Rs1Q7UcMytKZ8OKgsiP19FoMjzMHViOqeqKIPGaoYqywPB0Bt2VxtAKRUpE1hzCxMVCmM+FdKzu6an2/LC76mQc5hbTPEmVYa2ujEFrmzIcCpGto/LysILl5LXgAxcaU22gbgfOT0znSxwH3q81dLdw65olx/fepuLdzRbWoDJjtyzqZj7rDyJjvg7dU9exr9ddmCUfGxeEcRhtwwiE5lazgFGYHmXQLS5yWWcoQ2/tGL21Jt1s01nO3OtDASCU3U+48Q66qIRiMsaHIuNyuEGhKoFBRRFFaDSh0KS64h1ZDQxa5SRb03xrweBTHOEkjhc5QeJlVTIsPdujOp6dSQhUXdEM1bSNLAirumJYeka6yFAqq1L25AJDsqjL8iuKIRVNVjRZNRVGpmmF2i0GevFQtE4i/CyD7jSLt3DfPhrfD7pZyK2T1aw5lOE2jb25Cn5Uwws2MALgBcBz104C4lQKfcqH+WsMXXjByBwg4RyiLbR0D9ZQ0hSlnl7HbdtdSRnubE/jcnf/vufn7ul/Vzvhay7qbqLtNu3rBpCnmiQgVgM5AG5pXChN4Xa3lG53K0s4yqRGluAiynWy2qTrbabRWR2jN7POGHHDiTCeSbOFkjEil4iMTgVkzM3nEkYYNGNztMkSGoPwS1KDsRcTCM6U7I3PmRKrCZpjqKYq67Ksy6qpapamGIqoirZvG46hWZpu67ZvO4FjuqZmqYoBZQymq+u2KuuiqPKyLmqWUm9Xj4oHXuRolqKashNYiiEJGhQw8Ra70ulsVCeymk7p8YgaIPx0DlOGCYSuMJ7wowkPodtbdTpMu7NqtdOom1Wn0lFDhyXsqARHh+eqcHp4voYXGstyALXokMDkr71km0Qx/HcfPKRN9Cwaps4zj+j5fwzdE9AGSUqKTK0z4xB60G2gMP5kQa/zq6L3OnQBuMagu/ucTj6bzHMwATElk41ZLT86Ki3y+cVBhcpXmPw947NVKl+nSikPAQ4B6LCNLtfqcu2B0BsIvaHQH4nDsTSeyJOJPJnJM0RGF/ISVXBMJZYqiWsUodOkTjMWx3vSyuY5V2QsbmXzgi+PyClviqqrm6Fthrbq6qIpC4YkmrLq6ldbmgSHoUAlsOyIiiupnqx6suYrvXlnpdK8wUq2IFr8SqUFk2MUcqURjIbT6pJUMUJBcXmBSQgmz+dZSTnF7ZgfjbjhkB0M2f5g1R1AT592F0K32qDLNbpQpfIFbG9/eqGw2G+QpcJ0v46V8sP9IB2zdZKPZhL7kyN75f+ZZvURxW326R7P84GDpdKVvb30NnO8uU8R7cq3ef3xyRG49qB78s7g/+mJlNU/VVvpId1c76A0z1WIQoE4OCIuH2D3VKlcjczXqWKTqbRW1TZb63AQvT2+0xe6faE7EHtDaZDSj8YTeQqhKy1RGccUCN0denGNWjk8Y3NZ+QrWnzWqOmmwhiA5ih6aemjKripYEm+KgiXJrnq1pYg2Lzqc6HCSy0suL3tCtgrtI0YjeWvFmYxgsyudYg2aUpaMtqQ1LJshSkDvaIhbdAfdNN6e4HYwWPWGq+6AafeYZoeut6D/Y7G55WLsAAAbNUlEQVRK5arUUQG7XMD2cvPLpcVRDS0WhvszfuQCK3WfOX1Mr9//BjkC1zZ0Tw4y9F5MvDk9O+oe5CeHDbqSW+5fQs6VmMMKeVQlcjWykBEAM+h2WKiGy9CbQXcoDSF6pckc0jOw+6MXUwjG5jLoUuYKlfG5gB51CrTKCpak+rrq6xKsP4sPEroZgHe3t1+6ldFIyeUpBRdsljVoWiVIGaPhSCSUVNF7cSvNFtJsdt94O1j1+2y/x3QHTCeFbqNNV5uwkVuokEcV8rC43K+Qudx8LzfZa2DlXG/P2ChGpF2H7slJ9I32/78V6G5jEAkmV5tUDvt7NaJcxI8uI+fLq1yZOKzgR1XiOG1OA2+9vWp0uXaXgz4SaeDtD8QBRK84nonIXEBPo3cXfmGvyGAYm8M1KgvItWmTkChW52VXTVu+MmcIGXQlR7nakrOoK9isYLNZjIXifpP57K1nGI2UPQEXUcFmOZMhJIyQjkG7wy2kT4lTRJxOOLi5zeLtAFr29HqrXpfp9Oh2n2516XqLqjQg7REegTJxWKVyFTxXRA5zo73yNDcg2yFwrVi/Dt1vNMie/D3XHHQzo6CTt3f8/xZs423kbVyEm+UGB0UE5sy55X4e3y/hh7ALgudqJNTNpGlzrcXUO2wrNW3KAAwp+xC9wmgqzGf84jR6s+SZNBjaYjGFwDUKUwjKXImhMucXGI/TCgPHeTqyYImcwfMmlCsI6ZDe+90Kos1nuOVMhjXolU4xGkmrxGdvPUOrhOTyS2GRRV1cRHFxQSgLXEaO8+QUt9kud8QN78UtBG23w3Q7NJxC2qMabarWINOQix+V8MMSflBninlkr7YslKZH+f6+GgkuMIMtNJq94mBef/iNcQT+zUA3WkNrJckTG0g1Nz4oL/MlPHeIXCpiB5B7sDyqEoUadIo8HiO2s1xLAdxJHWH6A34w4WdTbj7jkbmwQER0IWELCUPlJWnQlMnsnqGtlb41SZ1G2AUhEpzBCZbAGRyrs7wJdYK8CZ0l77c40YHQ5a0Va9CMRlIKTspLQsK+fPGWLFUm5SVvrRiNJOUlLkLcYtIck1O6sggbuVlJOS1KDbJ422W6bboDF9XqkI0OVW+R1TpRrBL58vKwuDwoLg9qZD43vVxFCw203EaqEXCtSE1nPV+H7jcGVK/8K/5tQBeALbSDgmIxZyHO86PDo8l+Ccsdzi4X0f0MuhU8XyUKabW50qCgYVUqBswMEyF0ezwUFY25yYSbTfn5TEDm4gKRUERCFzKG6yRhUNl9REIJgxIjec4jU3qKCRijQ5HgCo7hW7EmK8ApuNxVl+DwvM2yJsPoFKUShLxciigmLA4b+4S8XBk0o1OsyaQTQ0lcQjFpjkoz9CTeTmEvGqbKg1Uf4jaNtxluW1S7STZbZL1N1ppkpYZD7lR5eVTCDuBBQA9KyEFxethCayudSC1M3WgDpxBe+Zlff/wNcQSuNeimTr6pH+cVh3cDpzLCsSCix1cmxcvtewrzo/z8oIimJy52CPuZaeCFo3co2OY9hd52l+vCwMv1U57GdMrPpvxsJsznIgJ1RdICShR0YiGjmLqE7CsZJU2qjbbH9BjlUVqjM+hmGBYcgYUmUvdfq9PQJRUclzBMWKA80pzWCXlJayQLhf50BmM4RDctSkGu8km8Tfu3ELr9Vb+76nXSkNui2g2q1aAgdJtEpUGUanixvMyVsMP0CBwcTS41lsWj/uX2oh4Bz4mMLYj90D0u019xNK8//Ld/BK4t6O548Km/8UmPMSPLQOXXGvKBQIAr2F7r0uX2PT22WVzs16lCnSoW0cMqUeiLrZ7QqiyLp3Db6nKnoi4Ma3BCAhySIMx2ayFDeSCqQBs6TMWytVSXF6uXMHFJKKQcKKRKSb7MO4LgipRGX2XpFCqijEmTqSMHY9Kcw64s5mzuLlxZ7tYyHWWGwZC72NWloNOyMM5auCNuCN2k2RS6q16b6baYToNuN+lmi6x16FqbrtSJYmFxcDi9eDC553Bysc81cqPLlUmB0ckAOG5oBaGTquVODuO//ZP1+l9w+ghcg9CFopz70HpOeG6QOg+tFSLB4ZrzWq5/WF0UK1iuQRdTK6b9wuIg2+tWlsfuGSc58+moC5WAEw5OFYODxSBjCa6FjGQLVRaoskj96CCGK+MqqVOkTrEOhwgL2mRInWKsVfbk/W/n/JwyKEIjGIthLIbQCEIjPnvHZ5fKMluYDMcyoBKarsWxpk+cTE/hdsAOeiyEbmfVa6+Ocdug2w2q0WZgW6hOFCtQHnRYWBwU0cMyelRGjmpIAeEnZgKnYbm+FfjpBK3Tn/b1+99AR+Cah+4JbqMgWq8hqhMQOxubVPAWUj/q75XRoxqZT/1coI9pGnuLqYUVVLHuoNthOzBnZrtwBi87HLNDuKXkRhlDeMqPkVTUjkizhTxfyPNsljyqLIbMiDJo2mRokxkzE1TCFiK6VHBCI6+2iLkwJw2S0AnSIFfOChGRpbr80Oc/BAeppAuVURTSQhYLmKhDl9aZCOPtLuQOuEGfG8BU+RRu61SrTrVqJCR7NshyBYO4LWFHmVSouswf9O8Zr7rmRo0hMTgJAi8Jo4zT8g10ul7/U+49AtcidFPF9ckEjRPoxmGy2WyhShYakYX22kQFJD84PBjdk0culzAYf/IIDLxwZBZWOJHgHztXpeMCOt1VB07QXg1Gq/sAeMKNsuiXzRnYAXghzyfcZCbMaZshTWrKQ/1gtkleavhV10JGcR16UCLSgnFWM2GO68THb/7EAhIwU0fodGs9F5F0zbN68hjyk2EXd8AOIPWC7beZ7i7e1qlWlWzCRdTqRLm6zBfRwwy6qZfN/tHkUnl+RFvLCHhpVRlOrj9W4VzPl+8927+h7l1z0F3DyVpwLMi903F24lIA4nXshk6YctYlT+yTnb3++cvDu49ml8pL2NpNi67QBOdEx5uZV0EhPkQv04ZcQqY/ZO4D4DE7zGSxM2GSYXgXhHtktzavkSZJ2zScYKTjM2E24Sa7/fAVd6D7pIYj0mLCTf+/9q60uXHsuv7yVOWrk0+OnTjOeCqOx07K9tgzPa1ukcS+ExvBDQA3gPsiiVq4YyORuu+JbLVa09Nj9weNjK5bbAACIfICR/e9d+89p7fot+ed5mXrG/ZbvBjWuGhi0DpTF5lzAm0FgdZC81tzWNL6Bp7fomCrin5R7BYFXwKygRb0GKB+epJycvnK63PzlXtZnSezMN1C1D2g3qAkTRHv8ot6YLMvc/TAc4QuInMANXHU0/KAmAiUnuLVdrVLthEIpa6Gq57Yoon6WaF2xrepYl9QerzoIeq5YyvvqZsX0NvXrIFZ7pfK/fcAXB2WTyNnjOFTENY7Wk49R9pF3e6d373zGxeuPanjKfEHr7Au3boCIrvaqO7d+L1FX3Jk2VWOYbaBQYuXuO2JfSq9gHWpYQkvKRsDU+3rxb6O463oFwVf4X2F90TKyfNoQU7oULSbI+pvaDvHu+TVfrKC/r7VJlzGcQTOA+hmC8zHJ/3F/f9MoYsCLxozn0JugoB8OIQxsPhD1zhw+S78dUPpsbnKd6R9jid+wGna4SRPkDzhYSM+bugt9Q2rZ1q99wBcGVh46nua/Z6CcHVYeS1+hwRQYO3Ku+k0LtyHy1qn9S20AZzPOOHkzhrteae36P/+zR+sXvkYZl0M2vrYRla/L5kawzj5XSpoYBwntxBvMW45T+Y6AuXk8fiCbRYKtTPazVkTtbtuLdL5Ll0GKWiCxhFSoMS8E9mA+cWBFn+hZwfdPQgoYh29B9PdfZoEiFEJ4TeBxSpo5QXelnRhX5QLpTd584y1Sd6l+SYw4IB5guTzUleQe6Lcl5SBXBzI5kAt9TVs1kC3BgZqozNrk8rJ6tNqfVqzZ3V7Vm/Om6/l1815sw6EjHbjquFcOO6l+z3WaF61amO7edVuzTvNq5Z36//si38xuyV76tgzp464O2qT2tGquJXPGpZKQ9McGEZf1yEJpBV7xWKvKHcVyZcFX+I9kesIfIdnG7Ts8YovMA6Rt86EBtNfextgP70JU+CwBrHKII7XMahHo793L/TR/Uf/Ws8LuqjP775x9H6ui2/QMbV73MPngGp6nEa3wXVz4CpViTUpocqZXa0+qwgNlm1QTJNgPUoYMOKI5Yc01yPlPqv2eLUnaH1RH0jGUDFHqjnSrIlpje9pnMuTcnlSqUxrlWnNmTeqs7reN515w5k3jEHJmTe8Vbd+6Txp1rhantSscbU6q2s9wxqX//3P/1G7qIP+4LRSnljY4HdNzPLYrIygj68yNC1oLdDMnqpDiXJR68r6oKj1FcUX2AZF2jmifk7U8lSVVFqK2ioKdUFtFLvX3U26CZEA1x50YtEIGY+Wsf5sFnVfKMafHXR/rJ+BEicJrxfzRrehlGXWYKS6UOrpqi9LHs/7NOsTTI9gBgVuRAhjShrQSo8p9ll1wGtDQR/hBn1QAEGdRqjoalq2JhVrUi1Pa7VLpzSuiG3FmlSrF7bWN6sXtj1vVC/sJw2fb88b5WnNnrtEjfwj96fqZa08K1vTEm4hRg2JujnRSmOtPDIqQ+jjs/paqQf1yXpX1roSqruQFJ8X2wzfJLn7/C0jNyXKoAsqoTpa/3qw2m9CyHUDWfF7uMUkT1nU/bHP00/n/JcAXUSwkFwtr6rtCm+yjEkJdU715WJXlLoc55FUJ0f5OWZQkMaM2KMUINZgi31OHQinJsFjmxFK/4LCAEZvpTKr6QOTcTi1p1uTij4wy9NqaVyuzGpPmnPdNIZW865Tnta8dfd3ha8kT0a4taxpCXcRA4/HRDMnqjlSS0OtNFBLg6LZV4yerHcl1RfVrmAMpGKX/yB/y0mOkFPyBZVojJubdItwmwQg1Z1B96cDu8/xSX/y0D3SoyTBfje+HlU7Zakq0CWSrVFcgxY6DOdRdKdAdXJ0t8APKLELJRyYWKPYf9ckqA+hUcEY6ah4o2SCyIBVmliVi6o+NCmbkf2iNa2UJuXqZV0bGNa08oRNKvUrF0fm6oVdv3J+8edf2tc2qqA2SxMTxXbNGKvGuGiMi/pQMQaK0Vf0vqT1ALFFn1dQfTI0Bnkf5m/zVImUapIzdK/DmxDW6uIAONkg6sK/h6t62YD5cyDk2V7jJUA3OcQxhJ0kSHeXq5ndr0s1Iae+LZTeUvU82yI5j+I8kvEKdCcv+BRuzZe7UPlc7AvFvqj25VPNsz7UEEE5cKaa41LlompNK1xTwNCtXtadm4Y2MEqT8pNmTSpa31B8tXZpk3X6P7/9tX1tawMVSwQZI9UYq/pI0UeKNpS1oawisgu1JxS7vOJzMuJAFxFoMUfcKX+bq7w+N74Tapx34a3R/HaXBtv9bpsEuyi4n9I+hC7mRs3mus8WfH/fB3sJ0A2iYBsgfnBU4TxbTpxhna+ydJkgyjnaLggdBo2cKbqZFzqU0IH6wWObEX/qNHrQbKTpQzBjZODAK3my7CvGyKxcVJ0bVwcyZPNJM8clbaCLHcmaln9P/uEv0l+tqaUNIKTrw6I+Kr4D7UACIdweB9ZlJZ8RPRp/PL5NUg4u6mSFDtDWEPW3lJPjXbo1a9xFd8d4G0DU3YfLzep+ovsIuvfD6L/vGcne/Sw98JOH7uFwCKMwiIL4EKOkUbRN11e7S3/eKfk6oNc65xo0zHs9nm2QUCYJVOOM6N3TwSo9EKfFioGYlPxhBJZ92ZpakicJbUHyJH2o165qkCIe6k+ZUZ5VtIGuDw3Zl3/1za9kX9YGQJSFcXsfaQeiikzp80Bt2aPFLiX4JO9B3zzbLrBt4lQfxjYJovaGcfLWRO2tOsvDXZiGEeTG4hgW2JNoD+zK8HQdi0ahHgMvMmfQfZao+ywf6iVA93A4IEZ9SAjj1qIwDYJ02732hBqXU9+yNUr1ZdWXxSYrtO41x1DZBnA4Ixpn6M7/EL3aoMi4tDHSxY7ANhjGpSVPLM8s2Ze0gfqUafa1ow10+9pmXOaXX//CvXXUvlK5KGnD4wj5HrdCsc8rfU7oUkKP5H2C9wiuU0C4LbBNKMaWPVbxOcbJ563XQoPqbdobEK3cYdDiSu9NsIn3oM/0BHRPwnif5UnJLvLMPPCThy7256nRF7Ou4xaFu+TWu2xrjSJXYfgaq3WU8shEEgq00L4vtxLaHONSZD2PAq+EACypfRnNfhVtoJQmhuQJpYkh++Jf5a/ZBt1cuMYI9H6eMtUcm1yTK8/KX775zRvzzL6u8S3GGKvqQCr2RTS1FpQep/RYWC3rMfn6d0w7J/UZZcDyHkm757Sb4xqE4rGcQ9DVnOBSlZExWHs36cUmXcRpiJsiUV8krlo5TmdPURdvZCH3mYHt836clwNdxN8PgRcXWi3jRQC5k93V7tId2XJdZC2aqzKsw5D1QqGaI+sFvsXKPgyViz1Z6Yowcu7BqhUsXMFEFKw00WVf1Ieq5AlvzNeMS1Uvy+ZYx0Prp16LSlcm68S//ennKGiTks+fcKv0+He47dJyj1YGLNcpkO5bNLklQLigTQsuSVXOBZsq9zT/pnkVT1fp7TZd7NLVPoUYi8LsCanokTjtPdr4vM9LdrVn44EXAt1jGRbUV+Fhc3AAqbEIpoXB+rAc3vSNhk5ohTfaGVknJE+UfYlvsYxLYQDDyBlkUIBWEsspFPsgqmCMVKUryb4odnjGpWiHlH3RHOsY8B++Kl2pNDG+fPPFF69/XbkovTa+FT0W/VGAy8pdCLaST0s+JcFaNyn5mKSGFNsM0Na0OaZWyOtniivYw8psMwpAeWQboZagMH2Ka+oRVh/tPptHLfsgn9cDLwe6D9GL9W93yW65W2z3GwTgcL65ak9bdJWmHZprcnyL55oAXWxih0MLV7DSiwAGGEOiCjAH5pqM2OGLPZl2yEI1pw2KuKnww1d9CFD/169+RtRybJOi3QLbJIt9QfLhypIPKl4iENASglcQOgTj5sQ2o3ZF1ROBh7VS4CqUWGXHi8FtBH3zcRokkLkNokOQHKLHEfcRUB/tft6HJbvac/LAi4LuA/SCQnp8iKNDGCS7XbINQE4uDtOgv+4bIzNXzr/Wz4gaIbR5PN3lW7DsjPpgKdEDgKHYyMhdvtiT2AYltFlzrDEueWa8Anluj3/SShPjlfrNl2/+y5oZZ+a36kASPaB3R4kfoIwWOgTfLvCdPNfO8a0C3yB5h2KqBbJ0Tpm5oiO0ps5sNV4ld5jv4pAmyT4KwyCJHyj0va9t/W5tGaqYH9lzetyyz/L5PPDSoHtE730PA7Bq7KPoEOJupCiN7tLFLL3srH1jZNIOnSuf58pvyXqBa9Jci0LUE0hUGmEMIY1GOnqU0GHMicq36dfGN7nKGc4wffAKPQ+/zX3JNiltKBdqbyUfxJCwUDUPlNEFrgWgZVvnbOuca+bZeoEqnZPGuVRn3VH1Yj3aHBZxGtytr7fBar9HcD1la0+IfbTxDq2PTj2uYH2+Jya70jPxwAuE7smzB2BvjhMotAI95jAJF+HyOr1dpOtFurpJb91bV+wIeLrLNii2SbDNAtcCg8AIRkCSpgvt+0KHUQeS5HNvre/+Iv+Rb9NP2n/nfvO19MfSVIMaTPhbQDGNAtPIo8vm2SaAlmm+xca6OaXJ6W3FHlbGy/46vYuhcS+IDrvtbhnsNvsovs/Q4nYCXNv4CLd4JfkevRl0T/f/hW+8WOhGUXSKwNtgu1wvwzhM0mSdbq/2N7Po8jq9WaebZbocB6PmvMHboN8rOIzg0KLLiA1GbNBSk2EcQvIg/Su0WZwBzlfe/i/9FUhRP2X//Ot/4tuM0hPFDkc7hNBmXxW/Zl0CBsZgBO8UeKfA2XnOzvN1sjtvXawn68MyAtaeXXjYYnIpKKo4HA5RkkZHufcEyUp/DLfoG2cD5heO2fuv92Kh++TtQ2q9e1yEdHzFyaT4bnc3vZk0ew2zbkiGKBli0ZI1u0hXCLKWp22CcUjoZ2ixYpuTOny+/Ja2CanDG0NVHxTJWv4P5O9+8eefE3aBsAuUTTAuxTUYocFKTV5pCoxF0EaB1gtCibaaWnfWug0uo/vmeMxfC5w+2I7zVfQl3g2Gj4cfHXnyq2YHX7oH/rGg+yl3M4qi29tb3/dN02QlhrEoqlqgawRrU7wLUBSbnNTi9V6RqZPfiF//Pv8/X+V++yfm/87UV3nrXOwIYkfgWxznsqxN0xWStkjGJMliQalIrb47X15Eh90BgimOp9l09FNuS3bOYw9k0L33SBgCz/PJPUmSbDab6+V1tVcu9Q3dV4ttWXR5rs4wVYoqE1SZAFhWSKpMkFaBKhNsjRYc7pXy6kw7I8oEZ3Oap1aHlebU9S7ai/hud9ggApr4AGUV0W63Xq8WKJKefm22kXngUz2QQfc9T8HsMorCMIzjOIXpJjQSbtM1tkV6e72/ugin0924MXM685Z/0+nMW80Lt3XZ6C+60914Ekxm8cV8P1+ky2263aVbTD0bpyB3dkiTOAnCcBtHAaydIUaa9z5BtpN54NM8kEH3sZ/2+z1GbxiGQRys96vlYYFtlS5X6XKdrtbpaptudul2k67vktt5cHUdzrfpJkh3m3S7TjerdL1M18vDapmsltFyFS6DfRAlYRSFcRQe4vheES0bLD92f7b/qR7IoHvvqe12GwRBFEX7I+EEXqAO0wBHzmNZJagNRmm4TlYPj+zS7SpeLqLFFs4PdyDRAJSqMRRmQmrqvuoYrzDF+0OYJLso2qFmvU+9Wdl5mQfeeSCD7jtfAFYPh/1+fziOY08NSbiy8r4t6QBE0PhIkOy20SZIdtEBlLsjYGaEKooEWZzuo30McTaETBXK0B6AbjVCqiI4zZMF3vfuQLbzqR7IoHvvKTy/PYH2BOMojuJ9jEo7QH8Qx08MaSTsA+H0ZGEcnfC4P6TJ/pAk8OYkAgNW5FNWNk4PQRJvM0WvT31Ss/MeeSCD7iOHPLX7KI/6kd3Tu58854TbhxtZ1D05Ldv4MR7IoPtD3noShH/bwYeIxdsZbn/I/dnPv88DGXS/zzPH438bSn/gXachdobdo5+z/3+kBzLofoLDfgCH31Of+Ohd8HtOhzDpG577Zuj9hFuQnfKBBzLofuCS9w88iI/vlqO+7yC89QRPvIGuhjYPxxLl5AB6aLDQfEjjrJrqfX9ne5/qgQy6H/cU4O0osPDDGwjS710Q43efAmclyicBaJM0TID7AugvkIzwe2/JdjIPfIoHMuh+zEuP8ro4l/vR1/2joIvaZzFu4wSBNga+jl2MWvziDLofc3/2s4954P8BAe3FOyNZyAYAAAAASUVORK5CYII=;" vertex="1" parent="7">
                    <mxGeometry x="570" y="140" width="178" height="89" as="geometry"/>
                </mxCell>
                <mxCell id="22" value="&lt;font color=&quot;#000000&quot; style=&quot;font-size: 9px;&quot;&gt;CALCULATE&lt;/font&gt;" style="rounded=1;whiteSpace=wrap;html=1;fillColor=#ffff88;strokeColor=none;fontSize=9;" vertex="1" parent="7">
                    <mxGeometry x="40" y="270" width="70" height="30" as="geometry"/>
                </mxCell>
                <mxCell id="23" value="V = 10u &lt;sup&gt;3&lt;/sup&gt;" style="text;html=1;strokeColor=none;fillColor=none;align=center;verticalAlign=middle;whiteSpace=wrap;rounded=0;fontColor=#0D0D0D;" vertex="1" parent="7">
                    <mxGeometry x="27" y="310" width="83" height="30" as="geometry"/>
                </mxCell>
                <mxCell id="15" value="&lt;h1&gt;&lt;font color=&quot;#0d0d0d&quot;&gt;Volume of a Sphere&lt;/font&gt;&lt;/h1&gt;" style="text;html=1;strokeColor=none;fillColor=none;align=center;verticalAlign=middle;whiteSpace=wrap;rounded=0;" vertex="1" parent="1">
                    <mxGeometry x="210" y="70" width="440" height="120" as="geometry"/>
                </mxCell>
            </root>
        </mxGraphModel>
    </diagram>
</mxfile>